<?xml version="1.0" encoding="UTF-8"?>
<svg width="20px" height="20px" viewBox="0 0 20 20" version="1.1" xmlns="http://www.w3.org/2000/svg" xmlns:xlink="http://www.w3.org/1999/xlink">
    <!-- Generator: Sketch 53.2 (72643) - https://sketchapp.com -->
    <title>Group 13</title>
    <desc>Created with Sketch.</desc>
    <g id="Page-1" stroke="none" stroke-width="1" fill="none" fill-rule="evenodd">
        <g id="Sidebar-Copy-6" transform="translate(-105.000000, -231.000000)" fill="#FFFFFF">
            <g id="Group-13" transform="translate(105.000000, 231.000000)">
                <path d="M2.31595144,-5.80393373e-17 L17.6840486,5.80393373e-17 C18.2780468,-5.10763662e-17 18.6509198,0.0928256111 18.9768457,0.267132704 C19.3027716,0.441439796 19.5585602,0.697228371 19.7328673,1.0231543 C19.9071744,1.34908022 20,1.72195321 20,2.31595144 L20,2.68404856 C20,3.27804679 19.9071744,3.65091978 19.7328673,3.9768457 C19.5585602,4.30277163 19.3027716,4.5585602 18.9768457,4.7328673 C18.6509198,4.90717439 18.2780468,5 17.6840486,5 L2.31595144,5 C1.72195321,5 1.34908022,4.90717439 1.0231543,4.7328673 C0.697228371,4.5585602 0.441439796,4.30277163 0.267132704,3.9768457 C0.0928256111,3.65091978 3.40509108e-17,3.27804679 -3.86928916e-17,2.68404856 L3.86928916e-17,2.31595144 C-3.40509108e-17,1.72195321 0.0928256111,1.34908022 0.267132704,1.0231543 C0.441439796,0.697228371 0.697228371,0.441439796 1.0231543,0.267132704 C1.34908022,0.0928256111 1.72195321,5.10763662e-17 2.31595144,-5.80393373e-17 Z" id="Rectangle"></path>
                <path d="M1,6.5 L19,6.5 L19,18 C19,19.1045695 18.1045695,20 17,20 L3,20 C1.8954305,20 1,19.1045695 1,18 L1,6.5 Z M6,9 L6,11 L14,11 L14,9 L6,9 Z" id="Combined-Shape"></path>
            </g>
        </g>
    </g>
</svg>