<svg xmlns="http://www.w3.org/2000/svg" width="133" height="35" viewBox="-4 -4 133 35">
<g fill-rule="evenodd" fill="#fff"><path d="M19.223 25.737h5.845V7.961h-5.845zm7.054 0h5.844V1.009h-5.844zm7.053 0h5.844V1.009H33.33zm-14.573-22.3a3.39 3.39 0 116.778-.002 3.39 3.39 0 01-6.778.002M96.229 7.96h5.844v1.834c.865-1.384 2.144-1.937 3.908-2.007v6.121h-.691c-2.076 0-3.217 1.176-3.217 3.356v8.473H96.23V7.96zm19.28 12.32a3.39 3.39 0 010-6.78 3.389 3.389 0 110 6.779zm3.441-19.273v7.85c-1.14-.794-2.455-1.14-4.046-1.14-4.876 0-8.68 3.77-8.68 9.198 0 5.119 3.666 9.061 8.127 9.061 1.833 0 3.32-.588 4.703-1.867v1.626h5.741V1.007h-5.845zM85.323 20.16a3.39 3.39 0 11.004-6.78 3.39 3.39 0 01-.004 6.78zm9.695-12.17h-5.845v1.324c-.82-.896-2.731-1.636-4.183-1.636-5.1 0-8.54 3.883-8.54 9.348 0 5.464 3.87 8.99 8.608 8.99 1.452 0 3.044-.483 4.115-1.279v1.003h5.845v-7.78c0-.32-.002-.63-.009-.934.007-.305.009-.616.009-.935v-8.1zM49.726 20.323a3.39 3.39 0 11.002-6.778 3.39 3.39 0 01-.002 6.778m.623-12.6c-1.591 0-2.905.345-4.047 1.14v-7.85h-5.844V25.74h5.74v-1.626c1.384 1.28 2.87 1.868 4.704 1.868 4.46 0 8.127-3.943 8.127-9.061 0-5.43-3.804-9.199-8.68-9.199M9.268 20.323a3.39 3.39 0 11.004-6.78 3.39 3.39 0 01-.004 6.78m.623-12.6c-1.591 0-2.905.345-4.047 1.14v-7.85H0V25.74h5.74v-1.626c1.384 1.28 2.871 1.868 4.704 1.868 4.46 0 8.127-3.943 8.127-9.061 0-5.43-3.804-9.199-8.68-9.199"/><path d="M67.762 20.052a3.39 3.39 0 110-6.78 3.39 3.39 0 010 6.78m0-12.48c-5.05 0-9.061 4.15-9.061 9.198 0 5.05 3.977 9.199 9.061 9.199 5.118 0 9.06-4.184 9.06-9.2 0-5.013-4.012-9.198-9.06-9.198"/></g>
</svg>