<?xml version="1.0" encoding="UTF-8"?>
<svg width="17px" height="21px" viewBox="0 0 17 21" version="1.1" xmlns="http://www.w3.org/2000/svg" xmlns:xlink="http://www.w3.org/1999/xlink">
    <!-- Generator: Sketch 53.2 (72643) - https://sketchapp.com -->
    <title>download-app</title>
    <desc>Created with Sketch.</desc>
    <g id="Page-1" stroke="none" stroke-width="1" fill="none" fill-rule="evenodd">
        <g id="Sidebar-Copy-6" transform="translate(-38.000000, -562.000000)" fill="#FFFFFF" fill-rule="nonzero">
            <path d="M41.3320312,582.105469 C40.3489534,582.105469 39.6067733,581.858075 39.1054688,581.363281 C38.6041642,580.868487 38.3535156,580.136073 38.3535156,579.166016 L38.3535156,570.025391 C38.3535156,569.048823 38.6041642,568.313154 39.1054688,567.818359 C39.6067733,567.323565 40.3489534,567.076172 41.3320312,567.076172 L43.8710938,567.076172 L43.8710938,568.755859 L41.4003906,568.755859 C40.9641905,568.755859 40.6272798,568.871418 40.3896484,569.102539 C40.152017,569.33366 40.0332031,569.680336 40.0332031,570.142578 L40.0332031,579.048828 C40.0332031,579.50456 40.152017,579.847981 40.3896484,580.079102 C40.6272798,580.310223 40.9641905,580.425781 41.4003906,580.425781 L51.8789062,580.425781 C52.3151063,580.425781 52.6536446,580.310223 52.8945312,580.079102 C53.1354179,579.847981 53.2558594,579.50456 53.2558594,579.048828 L53.2558594,570.142578 C53.2558594,569.680336 53.1354179,569.33366 52.8945312,569.102539 C52.6536446,568.871418 52.3151063,568.755859 51.8789062,568.755859 L49.4179688,568.755859 L49.4179688,567.076172 L51.9472656,567.076172 C52.9368539,567.076172 53.6806616,567.325193 54.1787109,567.823242 C54.6767603,568.321292 54.9257812,569.055334 54.9257812,570.025391 L54.9257812,579.166016 C54.9257812,580.136073 54.6767603,580.868487 54.1787109,581.363281 C53.6806616,581.858075 52.9368539,582.105469 51.9472656,582.105469 L41.3320312,582.105469 Z M46.6445312,576.089844 C46.5403641,576.089844 46.4410812,576.070313 46.3466797,576.03125 C46.2522782,575.992187 46.1497401,575.920573 46.0390625,575.816406 L42.9335938,572.818359 C42.777343,572.662109 42.6992188,572.486329 42.6992188,572.291016 C42.6992188,572.089192 42.769205,571.923178 42.9091797,571.792969 C43.0491543,571.66276 43.2200511,571.597656 43.421875,571.597656 C43.6432303,571.597656 43.8255201,571.679036 43.96875,571.841797 L45.3066406,573.257812 L45.921875,573.941406 L45.84375,572.554688 L45.84375,562.90625 C45.84375,562.697916 45.9218742,562.513998 46.078125,562.354492 C46.2343758,562.194986 46.423176,562.115234 46.6445312,562.115234 C46.8658865,562.115234 47.0546867,562.194986 47.2109375,562.354492 C47.3671883,562.513998 47.4453125,562.697916 47.4453125,562.90625 L47.4453125,572.554688 L47.3671875,573.931641 L47.9824219,573.257812 L49.3203125,571.841797 C49.4570319,571.679036 49.6393218,571.597656 49.8671875,571.597656 C50.062501,571.597656 50.2317701,571.66276 50.375,571.792969 C50.5182299,571.923178 50.5898438,572.089192 50.5898438,572.291016 C50.5898438,572.486329 50.5117195,572.662109 50.3554688,572.818359 L47.25,575.816406 C47.1393224,575.920573 47.0367843,575.992187 46.9423828,576.03125 C46.8479813,576.070313 46.7486984,576.089844 46.6445312,576.089844 Z" id="download-app"></path>
        </g>
    </g>
</svg>