<?xml version="1.0" encoding="UTF-8"?>
<svg width="30px" height="30px" viewBox="0 0 30 30" version="1.1" xmlns="http://www.w3.org/2000/svg" xmlns:xlink="http://www.w3.org/1999/xlink">
    <!-- Generator: Sketch 53.2 (72643) - https://sketchapp.com -->
    <title>Fill 1</title>
    <desc>Created with Sketch.</desc>
    <g id="Page-1" stroke="none" stroke-width="1" fill="none" fill-rule="evenodd">
        <g id="Sidebar" transform="translate(-360.000000, -3210.000000)" fill="#FFFFFF">
            <g id="Group-12" transform="translate(310.000000, 3169.000000)">
                <path d="M80,56.0916701 C80,47.7567647 73.2842773,41 65,41 C56.7157227,41 50,47.7567647 50,56.0916701 C50,63.6243589 55.4852832,69.86783 62.65625,71 L62.65625,60.454106 L58.8476562,60.454106 L58.8476562,56.0916701 L62.65625,56.0916701 L62.65625,52.7667865 C62.65625,48.9844367 64.8956445,46.8951836 68.3219727,46.8951836 C69.9630957,46.8951836 71.6796875,47.1899428 71.6796875,47.1899428 L71.6796875,50.9039085 L69.7882227,50.9039085 C67.9248535,50.9039085 67.34375,52.0672346 67.34375,53.2607145 L67.34375,56.0916701 L71.5039062,56.0916701 L70.8388672,60.454106 L67.34375,60.454106 L67.34375,71 C74.5147168,69.86783 80,63.6243589 80,56.0916701" id="Fill-1"></path>
            </g>
        </g>
    </g>
</svg>