<?xml version="1.0" encoding="UTF-8"?>
<svg width="20px" height="18px" viewBox="0 0 20 18" version="1.1" xmlns="http://www.w3.org/2000/svg" xmlns:xlink="http://www.w3.org/1999/xlink">
    <g stroke="none" fill="#FF0050" transform="translate(-180.000000, -3551.000000)">
        <g transform="translate(0.000000, 3520.000000)">
            <path d="M190.520499,34.8015212 C191.240184,33.1379561 192.857191,32 194.581302,32 C197.026405,32.0051784 199.005214,33.9626183 198.99999,36.374464 C198.99999,37.2949268 198.668229,38.3370823 198.036055,39.4892791 C197.249756,40.9107533 196.010225,42.4681609 194.382768,44.121369 C193.132788,45.3810179 191.805745,46.5694635 190.40817,47.6711708 L190.000653,48 L189.59183,47.6711708 C188.19948,46.5694635 186.872437,45.3810179 185.622456,44.121369 C183.989775,42.4681609 182.755469,40.9107533 181.96917,39.4892791 C181.331771,38.3370823 181.00001,37.2949268 181.00001,36.3796424 C180.994786,33.9626183 182.974901,32.0051784 185.423922,32 C187.153258,32 188.785939,33.1534914 189.469052,34.7717453 L189.888325,35.5342665 C189.93404,35.6261833 190.06596,35.6261833 190.1169,35.5342665 L190.597561,34.6293389 L190.520499,34.8015212 Z" id="Stroke-610"></path>
        </g>
    </g>
</svg>