<svg xmlns="http://www.w3.org/2000/svg" width="20" height="20" viewBox="0 0 20 20"><g fill="none" fill-rule="evenodd"><circle cx="10" cy="10" r="9.333" stroke="#FFF" stroke-width="1.333"/><path fill="#FFF" fill-rule="nonzero" d="M7.001 7.543c.066-1.662 1.202-2.922 3.326-2.922 1.933 0 3.237 1.15 3.237 2.717 0 1.136-.571 1.934-1.538 2.513-.945.556-1.216.944-1.216 1.699v.447H9.294l-.007-.586c-.037-1.033.41-1.692 1.413-2.293.886-.535 1.201-.96 1.201-1.714 0-.827-.652-1.435-1.655-1.435-1.01 0-1.663.608-1.728 1.574H7zm3.062 7.845a.941.941 0 01-.96-.945c0-.535.425-.945.96-.945.55 0 .967.41.967.945 0 .534-.418.945-.967.945z"/></g></svg>