<?xml version="1.0" encoding="UTF-8"?>
<svg width="30px" height="30px" viewBox="0 0 30 30" version="1.1" xmlns="http://www.w3.org/2000/svg" xmlns:xlink="http://www.w3.org/1999/xlink">
    <!-- Generator: Sketch 53.2 (72643) - https://sketchapp.com -->
    <title>Combined Shape</title>
    <desc>Created with Sketch.</desc>
    <g id="Page-1" stroke="none" stroke-width="1" fill="none" fill-rule="evenodd">
        <g id="Sidebar" transform="translate(-310.000000, -3210.000000)" fill="#FFFFFF" fill-rule="nonzero">
            <g id="Group-12" transform="translate(310.000000, 3169.000000)">
                <path d="M21.8181818,41 C26.3368752,41 30,44.6631248 30,49.1818182 L30,62.8181818 C30,67.3368752 26.3368752,71 21.8181818,71 L8.18181818,71 C3.66312477,71 6.05576195e-16,67.3368752 0,62.8181818 L0,49.1818182 C-6.05576195e-16,44.6631248 3.66312477,41 8.18181818,41 L21.8181818,41 Z M8.18181818,43.7272727 C5.16935591,43.7272727 2.72727273,46.1693559 2.72727273,49.1818182 L2.72727273,62.8181818 C2.72727273,65.8306441 5.16935591,68.2727273 8.18181818,68.2727273 L21.8181818,68.2727273 C24.8306441,68.2727273 27.2727273,65.8306441 27.2727273,62.8181818 L27.2727273,49.1818182 C27.2727273,46.1693559 24.8306441,43.7272727 21.8181818,43.7272727 L8.18181818,43.7272727 Z M8.96876069,52.8756137 C10.291197,50.2482285 13.1495032,48.7651093 16.0591138,49.196568 C19.030097,49.6371274 21.3628726,51.969903 21.803432,54.9408862 C22.2348907,57.8504968 20.7517715,60.708803 18.1243863,62.0312393 C15.4970011,63.3536757 12.3177193,62.8420861 10.2378166,60.7621834 C8.15791385,58.6822807 7.64632435,55.5029989 8.96876069,52.8756137 Z M15.659068,51.8943411 L15.3975452,51.8640677 C13.744107,51.7261694 12.1586448,52.604159 11.4048561,54.1017685 C10.6113943,55.6781996 10.918348,57.5857687 12.1662896,58.8337104 C13.4142313,60.081652 15.3218004,60.3886057 16.8982315,59.5951439 C18.4746626,58.8016821 19.3645341,57.0866984 19.1056589,55.340932 C18.8413232,53.5583421 17.4416579,52.1586768 15.659068,51.8943411 Z M21.5357635,47.5357635 C22.0682966,47.0032304 22.9317034,47.0032304 23.4642365,47.5357635 C23.9967696,48.0682966 23.9967696,48.9317034 23.4642365,49.4642365 C22.9317034,49.9967696 22.0682966,49.9967696 21.5357635,49.4642365 C21.0032304,48.9317034 21.0032304,48.0682966 21.5357635,47.5357635 Z" id="Combined-Shape"></path>
            </g>
        </g>
    </g>
</svg>