<?xml version="1.0" encoding="UTF-8"?>
<svg width="18px" height="19px" viewBox="0 0 18 19" version="1.1" xmlns="http://www.w3.org/2000/svg" xmlns:xlink="http://www.w3.org/1999/xlink">
    <!-- Generator: Sketch 53.2 (72643) - https://sketchapp.com -->
    <title>Group 618</title>
    <desc>Created with Sketch.</desc>
    <g id="Page-1" stroke="none" stroke-width="1" fill="none" fill-rule="evenodd">
        <g id="Sidebar" transform="translate(-222.000000, -3551.000000)">
            <g id="Group-3" transform="translate(0.000000, 3520.000000)">
                <g id="Group-618" transform="translate(222.000000, 31.000000)">
                    <path d="M1.6458,15.7778 L1.6458,1.4778 L14.6042,1.4778 L14.6042,5.0528 L15.9458,5.0528 L15.9458,1.0306 C15.9458,0.5392 15.5441,0.1375 15.0514,0.1375 L1.1986,0.1375 C0.7059,0.1375 0.3042,0.5392 0.3042,1.0306 L0.3042,16.225 C0.3042,16.7177 0.7059,17.1194 1.1986,17.1194 L6.7847,17.1194 L6.7847,15.7778 L1.6458,15.7778 Z" id="Path" fill="#7C7C7C"></path>
                    <path d="M13.7722,16.4486 C13.7722,17.4691 12.9441,18.2972 11.9236,18.2972 C10.9031,18.2972 10.075,17.4691 10.075,16.4486 C10.075,15.4281 10.9031,14.6 11.9236,14.6 C12.9441,14.6 13.7722,15.4281 13.7722,16.4486 Z" id="Stroke-615" stroke="#7C7C7C" stroke-width="1.21875"></path>
                    <polyline id="Stroke-616" stroke="#7C7C7C" stroke-width="1.21875" stroke-linejoin="round" points="17.5097 12.1924 13.7111 8.4042 13.7111 16.4486"></polyline>
                    <path d="M4.3264,9.7458 L9.4653,9.7458 M4.3264,5.7236 L11.0292,5.7236" id="Stroke-617" stroke="#7C7C7C" stroke-width="1.21875"></path>
                </g>
            </g>
        </g>
    </g>
</svg>