<svg xmlns="http://www.w3.org/2000/svg" width="34" height="48" viewBox="0 0 34 48" id="icon_mic_w34" x="1046" y="713"><defs><path id="gsa" d="M4.827 31.36V11.333h14.018V5.327h14.017V31.36H4.827z"/><path id="gsc" d="M44.054.901v26.032H0V.901h12.217a13.968 13.968 0 009.81 4.005A13.97 13.97 0 0031.838.901h12.216z"/><path id="gse" d="M0 0h23.722v16.944H0z"/><path id="gsg" d="M0 0h8.01v12.939H0z"/></defs><g fill="none" fill-rule="evenodd"><g transform="rotate(30 -37.59 21.767)"><mask id="gsb" fill="#fff"><use xmlns:xlink="http://www.w3.org/1999/xlink" xlink:href="#gsa"/></mask><rect width="20.025" height="30.037" x="8.502" y="-8.046" stroke="#FFF" stroke-width="2.002" mask="url(#gsb)" rx="4.005" transform="rotate(60 18.514 6.973)"/></g><g transform="rotate(30 -25.574 -1.403)"><mask id="gsd" fill="#fff"><use xmlns:xlink="http://www.w3.org/1999/xlink" xlink:href="#gsc"/></mask><path stroke="#FFF" stroke-width="2.603" d="M20.493-7.81A6.707 6.707 0 0013.879.018l2.512 14.844a5.716 5.716 0 0011.273 0L30.176.018a6.708 6.708 0 00-6.615-7.827h-3.068z" mask="url(#gsd)"/></g><circle cx="14.017" cy="14.017" r="12.716" stroke="#FFF" stroke-width="2.603" transform="rotate(30 13.579 25.107)"/><g transform="rotate(30 -8.194 23.587)"><mask id="gsf" fill="#fff"><use xmlns:xlink="http://www.w3.org/1999/xlink" xlink:href="#gse"/></mask><ellipse cx="11.861" cy=".94" stroke="#FFF" stroke-width="1.802" mask="url(#gsf)" rx="13.116" ry="8.51"/></g><g transform="rotate(30 -4.458 24.588)"><mask id="gsh" fill="#fff"><use xmlns:xlink="http://www.w3.org/1999/xlink" xlink:href="#gsg"/></mask><circle cx="9.24" cy="-6.527" r="12.415" stroke="#FFF" stroke-width="1.201" mask="url(#gsh)" transform="rotate(-11 9.24 -6.527)"/></g></g></svg>