<svg xmlns="http://www.w3.org/2000/svg" width="36" height="28" viewBox="-4 -4 36 28" id="list_mp3" x="303" y="856"><g transform="translate(0 1.5)" fill="none" fill-rule="evenodd"><rect width="26.8" height="15.8" x=".6" y=".6" stroke="#FFFFFF" stroke-width="1.2" opacity=".9" rx="2"/><path fill="#FFFFFF" fill-rule="nonzero" d="M12.102 12h-1.02V7.5h-.03L9.218 12h-.774L6.613 7.5h-.031V12H5.558V5.659h1.314l1.942 4.838h.036l1.942-4.838h1.31V12zm1.12-6.341h2.466c1.26 0 2.135.857 2.135 2.122 0 1.266-.9 2.123-2.184 2.123h-1.283V12h-1.134V5.659zm1.134.927V8.99h1.028c.813 0 1.288-.44 1.288-1.209 0-.76-.47-1.195-1.283-1.195h-1.033zm5.651 2.57v-.843h.725c.7 0 1.165-.4 1.165-.962 0-.559-.37-.919-1.068-.919-.668 0-1.147.356-1.186.954h-1.055c.075-1.134.967-1.855 2.241-1.855 1.314 0 2.158.686 2.158 1.666 0 .8-.567 1.327-1.332 1.485v.022c.936.088 1.556.65 1.556 1.534 0 1.125-.984 1.89-2.373 1.89-1.389 0-2.33-.76-2.386-1.881h1.085c.044.575.55.953 1.3.953.726 0 1.223-.408 1.223-.989.004-.676-.488-1.054-1.301-1.054h-.752z"/></g></svg>