<svg xmlns="http://www.w3.org/2000/svg" width="97" height="24" viewBox="-4 -4 97 24" id="gnb_musician_w89" x="490" y="775"><path d="M20 11.398h2.686v2.98h2.624v-2.98h2.592v2.98h2.624v-2.98h2.686v-2.49H20zm3.56-5.693h5.638V3.843H23.56v1.862zm-2.623 2.419h10.885v-6.7H20.937v6.7zm22.96 6.524h2.624V1.423h-2.624zm20.898-5.769h4.961V1.423h-7.584v2.42h4.96V6.46h-4.96v7.607h8.24V11.71h-5.617zm6.748 5.769h2.624V1.423h-2.624zm4.217-.968h12.686v-2.434H75.76zm9.2-3.124h2.623V1.423H76.698v2.45h8.262zm-42.055 2.809l-2.58-6.186h-1.59L39.74 4.48h2.694V2.06h-8.547v2.42h3.015l-3.313 8.918h2.833l1.64-4.408 1.765 4.375zm8.302-3.055h-2.624v4.092h11.799v-2.404h-9.175zm8.707-8.887h-2.36V2.79h-1.942v2.219h1.942v.702h-1.942v2.234h1.942v2.612h2.624V1.423zM53.946 4.34h-1.922l.55-1.478.536-1.439h-2.838l-3.095 8.33h2.833l1.569-4.215 1.701 4.215h2.924zM8 13.127A5.127 5.127 0 118 2.874a5.127 5.127 0 010 10.253M8 0a8 8 0 100 16A8 8 0 008 0" fill="#FFF" fill-rule="evenodd"/></svg>