<svg xmlns="http://www.w3.org/2000/svg" width="70" height="70" viewBox="0 0 70 70" id="icon_naverplus_w70" y="944"><defs><linearGradient id="gwa" x1="50%" x2="50%" y1="0%" y2="100%"><stop offset="0%" stop-color="#1EBEF5"/><stop offset="100%" stop-color="#1EAAF5"/></linearGradient><linearGradient id="gwb" x1="50%" x2="50%" y1="0%" y2="100%"><stop offset="0%" stop-color="#03F05A"/><stop offset="100%" stop-color="#03DC5A"/></linearGradient><linearGradient id="gwc" x1="50.001%" x2="50.001%" y1="-.274%" y2="101.596%"><stop offset="0%" stop-color="#FFF"/><stop offset="100%" stop-color="#FFF"/></linearGradient></defs><g fill="none" fill-rule="evenodd"><path fill="#505FDC" d="M70.5 35.546L35.73 20.365.5 35.545v32.169c0 1.54 1.25 2.786 2.79 2.786h64.42a2.788 2.788 0 002.79-2.786V35.546z"/><path fill="url(#gwa)" d="M33.757 0L22.703 14.332l11.054 5.415 3.81 6.993h28.128L70 17.13V2.783C70 1.246 68.706 0 67.112 0H33.757z" transform="translate(.5 .5)"/><path fill="url(#gwb)" d="M2.79 0C1.25 0 0 1.268 0 2.832v22.4l21.254 1.254L35 20.096V0H2.79z" transform="translate(.5 .5)"/><path fill="#1E9BF5" d="M70.5 35.5H33.966l-8.871-7.892L35.5 20.365l35-2.838z"/><path fill="#03C75A" d="M.5 25.403V35.5h35V20.365L2.93 22.796A2.618 2.618 0 00.5 25.403"/><path fill="#FFF" d="M51.165 20.902c2.291 0 4.637.847 4.637 3.063v3.275h-4.658zm4.637-12.234v6.957h6.956v4.658h-18.57v-4.658h6.956V8.668h4.658z"/><path fill="url(#gwc)" d="M20.948 18.058l-6.339-9.176H9.354v17.144h5.506v-9.175l6.339 9.175h5.254V8.882h-5.505z" transform="translate(.5 .5)"/><path fill="#FFF" d="M26.004 54.993v6.666H11.018v-6.666h14.986zm17.828-10.928V61.5h-2.667v-9.477h-3.52v8.41h-8.786V44.349h2.585v5.211h3.615v-5.211h2.585v5.11h3.521v-5.393h2.667zm6.226 10.003v1.494h9.032v-1.494h2.647V61.5H47.37v-7.433h2.688zm-26.72 3.187h-9.633v2.142h9.633v-2.142zm35.752.449h-9.054v1.636h9.054v-1.636zm-24.03-5.68h-3.617v5.986h3.616v-5.986zm-9.055-7.96v9.919h-2.566v-9.918h2.566zm-4.004.082v9.838h-2.524v-4h-1.955v3.394h-7.33v-9.03h7.33v3.292h1.955v-3.494H22zm31.032.202v1.746c0 .99.415 1.655.75 2.034.217.246.873.784 1.184 1.022.947.72 2.625 1.97 2.625 1.97l-1.506 1.885s-1.91-1.432-2.869-2.156c-.218-.165-.407-.32-.56-.443-.388-.31-.79-.715-.873-.931-.084.216-.45.616-.833.932-.732.666-2.659 2.13-3.658 2.878l-1.565-1.915c.9-.649 2.842-2.112 3.658-2.878.716-.683.949-1.332.949-2.332v-1.812h2.698zm8.704-.283v9.15H59.07v-9.15h2.667zm-46.68 2.505h-2.42v4.585h2.42V46.57z"/></g></svg>