<?xml version="1.0" encoding="UTF-8"?>
<svg width="21px" height="19px" viewBox="0 0 21 19" version="1.1" xmlns="http://www.w3.org/2000/svg" xmlns:xlink="http://www.w3.org/1999/xlink">
    <!-- Generator: Sketch 53.2 (72643) - https://sketchapp.com -->
    <title>Group</title>
    <desc>Created with Sketch.</desc>
    <g id="Page-1" stroke="none" stroke-width="1" fill="none" fill-rule="evenodd">
        <g id="Sidebar" transform="translate(-30.000000, -129.000000)">
            <g id="Group-2" transform="translate(28.000000, 30.000000)">
                <g id="Group" transform="translate(3.000000, 99.000000)">
                    <path d="M4.0644,17.4 L14.4132,17.4 L4.0644,17.4 Z M9.2388,13.1244 L9.2388,17.8488 L9.2388,13.1244 Z M13.068,1.1052 C13.0824,1.2036 13.1064,1.326 13.1292,1.4664 C13.1808,1.7568 13.2468,2.1084 13.35,2.652 C13.4436,3.1404 13.5372,3.6276 13.6308,4.1196 L13.7196,4.584 C14.0388,6.3084 14.2164,7.4388 14.2452,8.1036 C14.2776,8.1 14.3112,8.0952 14.3388,8.0904 C14.7648,8.01 15.3696,7.7196 15.9696,7.2744 C17.4696,6.1488 18.4728,4.4856 18.4728,2.7228 C18.4728,1.5936 17.4984,0.6648 16.2696,0.6648 L15.9096,0.66 C15.5148,0.6552 15.126,0.66 14.7372,0.6744 C13.7856,0.7212 13.2048,0.8952 13.068,1.1052 Z M5.4048,1.1052 C5.3904,1.2036 5.3664,1.326 5.3436,1.4664 C5.292,1.7568 5.226,2.1084 5.1228,2.652 C5.0292,3.1404 4.9356,3.6276 4.842,4.1196 L4.7532,4.584 C4.434,6.3084 4.2564,7.4388 4.2276,8.1036 C4.1952,8.1 4.1628,8.0952 4.134,8.0904 C3.708,8.01 3.1032,7.7196 2.508,7.2744 C1.0032,6.1488 0,4.4856 0,2.718 C0,1.5936 0.9744,0.6648 2.2032,0.66 L2.568,0.66 C2.958,0.6504 3.3468,0.66 3.7356,0.6744 C4.6872,0.7212 5.268,0.8952 5.4048,1.1052 Z" id="Stroke-157" stroke="#FFFFFF" stroke-width="1.3203"></path>
                    <path d="M2.9388,1.81188398e-14 C2.9196,1.81188398e-14 2.9016,0.018 2.9016,0.0372 L2.9016,7.2 C2.9016,15.6504 15.576,15.6504 15.576,7.2 L15.576,0.0372 C15.576,0.018 15.558,1.81188398e-14 15.5388,1.81188398e-14 L2.9388,1.81188398e-14 Z" id="Fill-158" fill="#FFFFFF"></path>
                </g>
            </g>
        </g>
    </g>
</svg>