<?xml version="1.0" encoding="UTF-8"?>
<svg width="20px" height="20px" viewBox="0 0 20 20" version="1.1" xmlns="http://www.w3.org/2000/svg" xmlns:xlink="http://www.w3.org/1999/xlink">
    <!-- Generator: Sketch 53.2 (72643) - https://sketchapp.com -->
    <title>Fill 169</title>
    <desc>Created with Sketch.</desc>
    <g id="Page-1" stroke="none" stroke-width="1" fill="none" fill-rule="evenodd">
        <g id="Sidebar" transform="translate(-30.000000, -165.000000)" fill="#FFFFFF">
            <g id="Group-2" transform="translate(28.000000, 30.000000)">
                <path d="M17.009697,150.009697 L16.1236364,149.123636 C17.2181818,148.030303 17.8327273,146.547879 17.8327273,145 C17.8327273,143.390303 17.1793939,141.932121 16.1236364,140.876364 L17.009697,139.990303 C18.3393939,141.316364 19.0836364,143.12 19.0836364,145 C19.0836364,146.955152 18.2921212,148.726061 17.009697,150.009697 Z M14.1684848,147.168485 C15.3709091,145.970909 15.3709091,144.029091 14.1684848,142.831515 L15.0545455,141.945455 C15.8642424,142.755152 16.3175758,143.854545 16.3175758,145 C16.3175758,146.145455 15.8642424,147.244848 15.0545455,148.054545 L14.1684848,147.168485 Z M12,146.458182 C10.0545455,146.458182 10.0545455,143.541818 12,143.541818 C13.9454545,143.541818 13.9454545,146.458182 12,146.458182 Z M9.83151515,147.168485 L8.94545455,148.054545 C8.13575758,147.244848 7.68242424,146.145455 7.68242424,145 C7.68242424,143.807273 8.16484848,142.727273 8.94545455,141.945455 L9.83151515,142.831515 C8.62909091,144.029091 8.62909091,145.970909 9.83151515,147.168485 Z M6.99030303,150.009697 C5.66060606,148.683636 4.91151515,146.88 4.91636364,145 C4.91151515,143.12 5.66060606,141.321212 6.99030303,139.990303 L7.87636364,140.876364 C6.78181818,141.969697 6.16727273,143.452121 6.16727273,145 C6.16727273,146.547879 6.78181818,148.030303 7.87636364,149.123636 L6.99030303,150.009697 Z M12,135 C6.47878788,135 2,139.478788 2,145 C2,150.526061 6.47878788,155 12,155 C17.5212121,155 22,150.526061 22,145 C22,139.478788 17.5212121,135 12,135 Z" id="Fill-169"></path>
            </g>
        </g>
    </g>
</svg>