<?xml version="1.0" encoding="UTF-8"?>
<svg width="18px" height="19px" viewBox="0 0 18 19" version="1.1" xmlns="http://www.w3.org/2000/svg" xmlns:xlink="http://www.w3.org/1999/xlink">
    <!-- Generator: Sketch 53.2 (72643) - https://sketchapp.com -->
    <title>Fill 225</title>
    <desc>Created with Sketch.</desc>
    <g id="Page-1" stroke="none" stroke-width="1" fill="none" fill-rule="evenodd">
        <g id="Sidebar" transform="translate(-31.000000, -89.000000)" fill="#FF0050">
            <g id="Group-2" transform="translate(28.000000, 30.000000)">
                <path d="M11.1306446,59.3487424 C11.6185785,58.8837525 12.3814215,58.8837525 12.8693554,59.3487424 L20.5810909,64.5717673 C20.8464793,64.8204828 21,65.1773355 21,65.5486064 L21,78 L3,78 L3,65.5486064 C3,65.1773355 3.15352066,64.8204828 3.41771901,64.5717673 L11.1306446,59.3487424 Z M12.864595,71.9647448 L12.864595,67.4818586 L14.7377851,69.9834316 L15.8493223,69.1387602 L12.7253554,64.9658672 C12.3207273,64.4263829 11.4745785,64.7123457 11.4745785,65.3888037 L11.4745785,70.9218219 C11.0461488,70.8569396 10.6093884,70.8893807 10.2011901,71.025153 C9.02895868,71.4060361 8.31371901,72.4669818 8.616,73.4053721 C8.92185124,74.3389563 10.1262149,74.7703034 11.2972562,74.3954279 C12.4694876,74.0157463 13.1894876,72.9548006 12.8824463,72.0200149 C12.878876,72.001992 12.8693554,71.9827676 12.864595,71.9647448 Z" id="Fill-225"></path>
            </g>
        </g>
    </g>
</svg>