<?xml version="1.0" encoding="UTF-8"?>
<svg width="16px" height="16px" viewBox="0 0 16 16" version="1.1" xmlns="http://www.w3.org/2000/svg" xmlns:xlink="http://www.w3.org/1999/xlink">
    <!-- Generator: Sketch 53.2 (72643) - https://sketchapp.com -->
    <title>Combined Shape</title>
    <desc>Created with Sketch.</desc>
    <g id="Page-1" stroke="none" stroke-width="1" fill="none" fill-rule="evenodd">
        <g id="Sidebar" transform="translate(-32.000000, -243.000000)" fill="#FFFFFF" fill-rule="nonzero">
            <g id="Group-2" transform="translate(28.000000, 30.000000)">
                <path d="M9.24444444,215.011948 L14.7555556,215.011948 L14.7555556,213 L16.3555556,213 L16.3555556,215.011948 L18.6666667,215.011948 C19.4026667,215.011948 20,215.599446 20,216.323328 L20,227.68862 C20,228.412502 19.4026667,229 18.6666667,229 L5.33333333,229 C4.59733333,229 4,228.412502 4,227.68862 L4,216.323328 C4,215.599446 4.59733333,215.011948 5.33333333,215.011948 L7.64444444,215.011948 L7.64444444,213 L9.24444444,213 L9.24444444,215.011948 Z M12.5925926,217.452863 C12.2180741,217.092671 11.5555556,217.34329 11.5555556,217.88999 L11.5555556,222.9898 C11.1478519,222.907038 10.7271111,222.935014 10.3336296,223.066735 C9.28237037,223.398951 8.6482963,224.323328 8.91259259,225.12531 C9.1757037,225.926126 10.2459259,226.304969 11.296,225.971587 C12.1576296,225.694157 12.7407407,225.025062 12.7727407,224.351304 L12.7822222,224.351304 L12.7822222,219.683957 L15.0234074,222.602798 L16,221.878916 L12.6577778,217.525135 L12.5925926,217.452863 Z" id="Combined-Shape"></path>
            </g>
        </g>
    </g>
</svg>