<?xml version="1.0" encoding="UTF-8"?>
<svg width="17px" height="17px" viewBox="0 0 17 17" version="1.1" xmlns="http://www.w3.org/2000/svg" xmlns:xlink="http://www.w3.org/1999/xlink">
    <!-- Generator: Sketch 53.2 (72643) - https://sketchapp.com -->
    <title>Fill 188</title>
    <desc>Created with Sketch.</desc>
    <g id="Page-1" stroke="none" stroke-width="1" fill="none" fill-rule="evenodd">
        <g id="Sidebar" transform="translate(-32.000000, -205.000000)" fill="#FFFFFF">
            <g id="Group-2" transform="translate(28.000000, 30.000000)">
                <path d="M5.79901754,175 L19.2009825,175 C20.1935439,175 21,175.806456 21,176.799018 L21,190.200982 C21,191.193544 20.1935439,192 19.2009825,192 L5.79901754,192 C4.80645614,192 4,191.193544 4,190.200982 L4,176.799018 C4,175.806456 4.80645614,175 5.79901754,175 Z M7.20196491,185.979018 L7.20196491,187.800702 L13.3995088,187.800702 L13.3995088,185.979018 L7.20196491,185.979018 Z M7.20196491,182.945263 L7.20196491,184.763368 L16.6014737,184.763368 L16.6014737,182.945263 L7.20196491,182.945263 Z" id="Fill-188"></path>
            </g>
        </g>
    </g>
</svg>