<?xml version="1.0" encoding="UTF-8"?>
<svg width="30px" height="30px" viewBox="0 0 30 30" version="1.1" xmlns="http://www.w3.org/2000/svg" xmlns:xlink="http://www.w3.org/1999/xlink">
    <!-- Generator: Sketch 53.2 (72643) - https://sketchapp.com -->
    <title>Fill 520</title>
    <desc>Created with Sketch.</desc>
    <g id="Page-1" stroke="none" stroke-width="1" fill="none" fill-rule="evenodd">
        <g id="Sidebar" transform="translate(-410.000000, -3210.000000)" fill="#FFFFFF">
            <g id="Group-12" transform="translate(310.000000, 3169.000000)">
                <path d="M130,42.7647059 L130,69.2352941 C130,70.2099143 129.209914,71 128.235294,71 L101.764706,71 C100.790086,71 100,70.2099143 100,69.2352941 L100,42.7647059 C100,41.7900857 100.790086,41 101.764706,41 L128.235294,41 C129.209914,41 130,41.7900857 130,42.7647059 Z M112.615242,49.1334651 L107.500436,49.1334651 L107.500436,62.8665349 L112.54723,62.8665349 L112.54723,55.7619601 L117.384758,62.8665349 L122.499564,62.8665349 L122.499564,49.1334651 L117.45277,49.1334651 L117.45277,56.2450154 L112.615242,49.1334651 Z" id="Fill-520"></path>
            </g>
        </g>
    </g>
</svg>