<?xml version="1.0" encoding="UTF-8"?>
<svg width="18px" height="20px" viewBox="0 0 18 20" version="1.1" xmlns="http://www.w3.org/2000/svg" xmlns:xlink="http://www.w3.org/1999/xlink">
    <!-- Generator: Sketch 53.2 (72643) - https://sketchapp.com -->
    <title>Fill 630</title>
    <desc>Created with Sketch.</desc>
    <g id="Page-1" stroke="none" stroke-width="1" fill="none" fill-rule="evenodd">
        <g id="Sidebar" transform="translate(-760.000000, -3550.000000)" fill="#FFFFFF">
            <g id="Group-3" transform="translate(0.000000, 3520.000000)">
                <path d="M774.246829,40.4243092 L760.334567,48.7199874 C760.229915,48.7813902 760.087209,48.7451783 760.031712,48.6286704 C760.012685,48.590884 760,48.5483744 760,48.5105881 L760,31.4941352 C760,31.3587342 760.099894,31.2532473 760.229915,31.2532473 C760.266385,31.2532473 760.30444,31.259545 760.334567,31.2847359 L774.246829,39.5804141 C774.556025,39.777218 774.556025,40.2275053 774.246829,40.4243092 Z M776.840909,30 L777.52907,30 C777.789112,30 778,30.2141226 778,30.4723294 L778,49.5260962 C778,49.7906006 777.789112,50 777.52907,50 L776.840909,50 C776.580867,50 776.365222,49.7906006 776.365222,49.5260962 L776.365222,30.4723294 C776.365222,30.2141226 776.580867,30 776.840909,30 Z" id="Fill-630"></path>
            </g>
        </g>
    </g>
</svg>