<svg xmlns="http://www.w3.org/2000/svg" width="80" height="22" viewBox="0 0 80 22" id="icon_now_w80"><path d="M75.71 12.892c2.37 0 4.29 1.815 4.29 4.054C80 19.186 78.08 21 75.71 21s-4.29-1.815-4.29-4.054c0-2.239 1.92-4.054 4.29-4.054zM19.059 0v20.741L6.196 11.324v9.417H0V.001l12.863 9.416V0h6.196zm13.923 0c6.06 0 10.975 4.643 10.975 10.37 0 5.728-4.914 10.371-10.975 10.371-6.062 0-10.975-4.643-10.975-10.37C22.007 4.643 26.92 0 32.982 0zm16.12 0l4.854 9.111 1.756-3.296L58.81 0l3.098 5.815 1.757 3.296L68.519 0h6.197l-7.953 14.926-3.098 5.815-3.098-5.815-1.757-3.296-1.756 3.296-3.098 5.815-3.098-5.815L42.905 0H49.1zm-16.12 5.855c-2.635 0-4.78 2.026-4.78 4.516s2.145 4.515 4.78 4.515c2.635 0 4.778-2.025 4.778-4.515 0-2.49-2.143-4.516-4.778-4.516z" fill="#FFF" fill-rule="evenodd"/></svg>