<svg xmlns="http://www.w3.org/2000/svg" width="118" height="28" viewBox="-4 -4 118 28" id="gnb_onstage_w110" x="696" y="685"><path d="M12.858 10.092v-.044c0-2.234-1.688-4.179-4.162-4.179-2.452 0-4.093 1.902-4.093 4.136v.043c0 2.234 1.688 4.18 4.14 4.18 2.473 0 4.115-1.903 4.115-4.136M0 10.092v-.044C0 5.604 3.747 2 8.742 2c4.996 0 8.697 3.56 8.697 8.005v.043c0 4.445-3.748 8.05-8.743 8.05C3.699 18.098 0 14.537 0 10.092M18.78 2h4.041l6.43 7.8V2h4.286v14.756h-3.795l-6.675-8.094v8.094H18.78zm21.152 10.65c1.515 1.223 3.206 1.868 4.985 1.868 1.142 0 1.756-.4 1.756-1.067v-.044c0-.645-.505-1.001-2.59-1.49-3.272-.756-5.796-1.69-5.796-4.891v-.045c0-2.89 2.26-4.981 5.948-4.981 2.614 0 4.656.712 6.324 2.068l-2.13 3.047c-1.404-1.001-2.942-1.535-4.302-1.535-1.032 0-1.538.445-1.538 1v.045c0 .712.527 1.023 2.657 1.512 3.535.778 5.73 1.934 5.73 4.847v.044c0 3.18-2.48 5.07-6.213 5.07-2.722 0-5.314-.867-7.202-2.58l2.371-2.868zm15.632-7.066h-4.588V2H64.39v3.584h-4.587v11.172h-4.24zm17.908 5.396l-1.737-4.166-1.76 4.165h3.497zM69.685 2h4.166l6.637 14.756h-4.634L74.72 14.14h-6.014l-1.114 2.617h-4.543L69.685 2zm25.559 7.828v5.881a10.035 10.035 0 01-6.549 2.389c-4.695 0-8.207-3.317-8.207-8.005v-.044c0-4.51 3.446-8.049 8.12-8.049 2.651 0 4.524.84 6.118 2.256l-2.455 3.03c-1.077-.93-2.154-1.46-3.64-1.46-2.176 0-3.856 1.879-3.856 4.245v.045c0 2.498 1.701 4.29 4.093 4.29 1.012 0 1.787-.221 2.413-.642V9.828M97.927 2h11.966v3.478h-7.849v2.235h7.098v3.225h-7.098v2.34H110v3.478H97.927z" fill="#FFF" fill-rule="evenodd"/></svg>