<?xml version="1.0" encoding="UTF-8"?>
<svg width="20px" height="28px" viewBox="0 0 20 28" version="1.1" xmlns="http://www.w3.org/2000/svg" xmlns:xlink="http://www.w3.org/1999/xlink">
    <!-- Generator: Sketch 53.2 (72643) - https://sketchapp.com -->
    <title>Combined Shape</title>
    <desc>Created with Sketch.</desc>
    <g id="Page-1" stroke="none" stroke-width="1" fill="none" fill-rule="evenodd">
        <g id="Sidebar" transform="translate(-710.000000, -3546.000000)" fill="#FFFFFF">
            <g id="Group-3" transform="translate(0.000000, 3520.000000)">
                <path d="M722.220351,26 L729.358596,26 C729.715088,26 730,26.2914872 730,26.6562051 L730,53.3437949 C730,53.7085128 729.715088,54 729.358596,54 L722.220351,54 C721.86386,54 721.578947,53.7085128 721.578947,53.3437949 L721.578947,26.6562051 C721.578947,26.2914872 721.86386,26 722.220351,26 Z M710.641404,26 L717.779649,26 C718.13614,26 718.421053,26.2914872 718.421053,26.6562051 L718.421053,53.3437949 C718.421053,53.7085128 718.13614,54 717.779649,54 L710.641404,54 C710.284912,54 710,53.7085128 710,53.3437949 L710,26.6562051 C710,26.2914872 710.284912,26 710.641404,26 Z" id="Combined-Shape"></path>
            </g>
        </g>
    </g>
</svg>