<?xml version="1.0" encoding="UTF-8"?>
<svg width="17px" height="20px" viewBox="0 0 17 20" version="1.1" xmlns="http://www.w3.org/2000/svg" xmlns:xlink="http://www.w3.org/1999/xlink">
    <!-- Generator: Sketch 53.2 (72643) - https://sketchapp.com -->
    <title>Fill 641</title>
    <desc>Created with Sketch.</desc>
    <g id="Page-1" stroke="none" stroke-width="1" fill="none" fill-rule="evenodd">
        <g id="Sidebar" transform="translate(-663.000000, -3550.000000)" fill="#FFFFFF">
            <g id="Group-3" transform="translate(0.000000, 3520.000000)">
                <path d="M679.68402,48.7199874 C679.784355,48.7876879 679.917636,48.7451783 679.976039,48.6286704 C679.99401,48.590884 680,48.5483744 680,48.5105881 L680,31.4941352 C680,31.3587342 679.907153,31.2532473 679.788848,31.2532473 C679.748414,31.248524 679.713971,31.259545 679.68402,31.2847359 L666.546159,39.5804141 C666.252643,39.777218 666.252643,40.2275053 666.546159,40.4243092 L679.68402,48.7199874 Z M664.094697,30 L663.444767,30 C663.199172,30 663,30.2141226 663,30.4723294 L663,49.5260962 C663,49.7906006 663.199172,50 663.444767,50 L664.094697,50 C664.340292,50 664.545455,49.7906006 664.545455,49.5260962 L664.545455,30.4723294 C664.545455,30.2141226 664.340292,30 664.094697,30 Z" id="Fill-641"></path>
            </g>
        </g>
    </g>
</svg>