<?xml version="1.0" encoding="UTF-8"?>
<svg width="21px" height="26px" viewBox="0 0 21 26" version="1.1" xmlns="http://www.w3.org/2000/svg" xmlns:xlink="http://www.w3.org/1999/xlink">
    <!-- Generator: Sketch 53.2 (72643) - https://sketchapp.com -->
    <title>i-theme</title>
    <desc>Created with Sketch.</desc>
    <g id="Page-1" stroke="none" stroke-width="1" fill="none" fill-rule="evenodd">
        <g id="Sidebar-Copy-6" transform="translate(-841.000000, -680.000000)" fill="#FFFFFF" fill-rule="nonzero">
            <path d="M853.179688,705.914062 C853.023437,705.914062 852.892579,705.863282 852.787109,705.761719 C852.68164,705.660156 852.617188,705.531251 852.59375,705.375 C852.421874,704.164056 852.236329,703.148442 852.037109,702.328125 C851.83789,701.507808 851.576173,700.832034 851.251953,700.300781 C850.927733,699.769529 850.501956,699.345705 849.974609,699.029297 C849.447263,698.712889 848.777348,698.458985 847.964844,698.267578 C847.15234,698.076171 846.15235,697.902345 844.964844,697.746094 C844.80078,697.722656 844.667969,697.656251 844.566406,697.546875 C844.464843,697.437499 844.414062,697.308594 844.414062,697.160156 C844.414062,697.003905 844.464843,696.871094 844.566406,696.761719 C844.667969,696.652343 844.80078,696.589844 844.964844,696.574219 C846.160162,696.441406 847.166012,696.281251 847.982422,696.09375 C848.798832,695.906249 849.472654,695.652345 850.003906,695.332031 C850.535159,695.011717 850.960936,694.583987 851.28125,694.048828 C851.601564,693.513669 851.859374,692.830082 852.054688,691.998047 C852.250001,691.166011 852.429687,690.148444 852.59375,688.945312 C852.617188,688.781249 852.679687,688.650391 852.78125,688.552734 C852.882813,688.455078 853.015624,688.40625 853.179688,688.40625 C853.328126,688.40625 853.453124,688.455078 853.554688,688.552734 C853.656251,688.650391 853.722656,688.781249 853.753906,688.945312 C853.910157,690.148444 854.08789,691.166011 854.287109,691.998047 C854.486329,692.830082 854.748045,693.513669 855.072266,694.048828 C855.396486,694.583987 855.822263,695.011717 856.349609,695.332031 C856.876956,695.652345 857.546871,695.906249 858.359375,696.09375 C859.171879,696.281251 860.175775,696.441406 861.371094,696.574219 C861.535157,696.589844 861.669921,696.652343 861.775391,696.761719 C861.88086,696.871094 861.933594,697.003905 861.933594,697.160156 C861.933594,697.308594 861.88086,697.437499 861.775391,697.546875 C861.669921,697.656251 861.535157,697.722656 861.371094,697.746094 C860.175775,697.878907 859.169926,698.037108 858.353516,698.220703 C857.537105,698.404298 856.865237,698.658202 856.337891,698.982422 C855.810544,699.306642 855.384767,699.736325 855.060547,700.271484 C854.736327,700.806643 854.476563,701.488277 854.28125,702.316406 C854.085937,703.144535 853.910157,704.164056 853.753906,705.375 C853.730469,705.531251 853.666016,705.660156 853.560547,705.761719 C853.455078,705.863282 853.328126,705.914062 853.179688,705.914062 Z M845.5625,693.65625 C845.328124,693.65625 845.195313,693.531251 845.164062,693.28125 C845.078125,692.539059 844.984376,691.958986 844.882812,691.541016 C844.781249,691.123045 844.623048,690.808595 844.408203,690.597656 C844.193358,690.386718 843.871096,690.22461 843.441406,690.111328 C843.011717,689.998046 842.421879,689.882813 841.671875,689.765625 C841.398436,689.726562 841.261719,689.593751 841.261719,689.367188 C841.261719,689.140624 841.382811,689.007813 841.625,688.96875 C842.382816,688.828124 842.980467,688.699219 843.417969,688.582031 C843.855471,688.464843 844.183593,688.302735 844.402344,688.095703 C844.621095,687.888671 844.781249,687.582033 844.882812,687.175781 C844.984376,686.769529 845.078125,686.195316 845.164062,685.453125 C845.195313,685.195311 845.328124,685.066406 845.5625,685.066406 C845.804689,685.066406 845.9375,685.191405 845.960938,685.441406 C846.062501,686.19141 846.164062,686.781248 846.265625,687.210938 C846.367188,687.640627 846.52539,687.960936 846.740234,688.171875 C846.955079,688.382814 847.279295,688.541015 847.712891,688.646484 C848.146487,688.751954 848.74609,688.859374 849.511719,688.96875 C849.613282,688.984375 849.699218,689.027343 849.769531,689.097656 C849.839844,689.167969 849.875,689.257812 849.875,689.367188 C849.875,689.585939 849.753907,689.71875 849.511719,689.765625 C848.74609,689.914063 848.146487,690.044921 847.712891,690.158203 C847.279295,690.271485 846.955079,690.433593 846.740234,690.644531 C846.52539,690.85547 846.367188,691.166014 846.265625,691.576172 C846.164062,691.98633 846.062501,692.55859 845.960938,693.292969 C845.953125,693.402344 845.91211,693.490234 845.837891,693.556641 C845.763672,693.623047 845.671876,693.65625 845.5625,693.65625 Z M850.929688,685.957031 C850.796874,685.957031 850.714844,685.886719 850.683594,685.746094 C850.597656,685.285154 850.523438,684.923829 850.460938,684.662109 C850.398437,684.400389 850.300782,684.203126 850.167969,684.070312 C850.035156,683.937499 849.835939,683.833985 849.570312,683.759766 C849.304686,683.685547 848.933596,683.597657 848.457031,683.496094 C848.30078,683.472656 848.222656,683.390626 848.222656,683.25 C848.222656,683.109374 848.296874,683.027344 848.445312,683.003906 C848.92969,682.902343 849.302733,682.8125 849.564453,682.734375 C849.826173,682.65625 850.021484,682.550782 850.150391,682.417969 C850.279298,682.285156 850.378906,682.087892 850.449219,681.826172 C850.519532,681.564452 850.597656,681.21094 850.683594,680.765625 C850.714844,680.609374 850.796874,680.53125 850.929688,680.53125 C851.070313,680.53125 851.152344,680.609374 851.175781,680.765625 C851.269532,681.218752 851.351562,681.574217 851.421875,681.832031 C851.492188,682.089845 851.591796,682.287109 851.720703,682.423828 C851.84961,682.560548 852.044921,682.667968 852.306641,682.746094 C852.568361,682.824219 852.941404,682.910156 853.425781,683.003906 C853.574219,683.027344 853.648438,683.109374 853.648438,683.25 C853.648438,683.390626 853.574219,683.472656 853.425781,683.496094 C852.941404,683.589844 852.566408,683.675781 852.300781,683.753906 C852.035155,683.832032 851.835938,683.937499 851.703125,684.070312 C851.570312,684.203126 851.470703,684.400389 851.404297,684.662109 C851.33789,684.923829 851.261719,685.285154 851.175781,685.746094 C851.152344,685.886719 851.070313,685.957031 850.929688,685.957031 Z" id="i-theme"></path>
        </g>
    </g>
</svg>