<svg xmlns="http://www.w3.org/2000/svg" width="58" height="58" viewBox="0 0 58 58"><defs><path id="bpa" d="M0 0h58v58H0z"/><path id="bpc" d="M58.142 19.283h-33.35v39.15H.142v-58h58v18.85z"/><path id="bpe" d="M.588 0h33.35v39.15H.588z"/></defs><g fill="none" fill-rule="evenodd"><mask id="bpb" fill="#fff"><use xmlns:xlink="http://www.w3.org/1999/xlink" xlink:href="#bpa"/></mask><g mask="url(#bpb)"><g transform="translate(-.142 -.433)"><mask id="bpd" fill="#fff"><use xmlns:xlink="http://www.w3.org/1999/xlink" xlink:href="#bpc"/></mask><path fill="#CCC" d="M25.603 7a15.866 15.866 0 012.834 3.738c.258.473.491.958.698 1.454A15.87 15.87 0 0132.668 7c2.575-2.515 6.015-4.145 9.797-4.145 8 .014 14.473 6.512 14.46 14.515 0 15.49-27.79 36.336-27.79 36.336S1.345 32.861 1.345 17.37C1.334 9.369 7.805 2.872 15.802 2.855c3.783 0 7.226 1.63 9.802 4.145zm5.444 40.325c3.167-2.67 6.334-5.576 9.28-8.606 4.495-4.625 8.044-9.107 10.279-13.207 1.688-3.1 2.548-5.85 2.548-8.149.01-5.92-4.779-10.728-10.689-10.738-4.165 0-8.12 2.877-9.852 7.02-1.29 3.09-5.668 3.088-6.957-.001-1.727-4.14-5.687-7.02-9.847-7.02-5.915.013-10.703 4.82-10.693 10.746 0 2.292.86 5.042 2.547 8.14 2.234 4.1 5.784 8.583 10.28 13.21 2.946 3.03 6.113 5.935 9.28 8.605.669.563 1.308 1.092 1.912 1.582.604-.49 1.243-1.019 1.912-1.582z" mask="url(#bpd)"/></g><g transform="translate(24.062 18.85)"><mask id="bpf" fill="#fff"><use xmlns:xlink="http://www.w3.org/1999/xlink" xlink:href="#bpe"/></mask><path fill="#CCC" fill-rule="nonzero" d="M19.119 24.393V4.317c0-1.685 2.043-2.524 3.226-1.324l11.58 11.735-2.684 2.648-8.352-8.465v20.322h-.016c.041 2.48-1.617 5.124-4.406 6.607-3.684 1.959-7.945 1.15-9.517-1.808-1.573-2.957.14-6.942 3.823-8.9 2.133-1.135 4.46-1.341 6.346-.74zm-2.422 8.118c1.987-1.056 2.763-2.864 2.264-3.802-.498-.938-2.432-1.305-4.418-.25-1.987 1.057-2.763 2.865-2.265 3.803.5.938 2.433 1.306 4.419.25z" mask="url(#bpf)"/></g></g></g></svg>