<?xml version="1.0" encoding="UTF-8"?>
<svg width="15px" height="12px" viewBox="0 0 15 12" version="1.1" xmlns="http://www.w3.org/2000/svg" xmlns:xlink="http://www.w3.org/1999/xlink">
    <!-- Generator: Sketch 53.2 (72643) - https://sketchapp.com -->
    <title>Fill 479</title>
    <desc>Created with Sketch.</desc>
    <g id="Page-1" stroke="none" stroke-width="1" fill="none" fill-rule="evenodd">
        <g id="Sidebar" transform="translate(-310.000000, -94.000000)" fill="#8E8E93" fill-rule="nonzero">
            <path d="M311.367,99.4545455 C311.441,99.4545455 311.5,99.3973333 311.5,99.3255758 L311.5,95.5835152 C311.5,95.5117576 311.441,95.4545455 311.367,95.4545455 L310.133,95.4545455 C310.059,95.4545455 310,95.5117576 310,95.5835152 L310,99.3255758 C310,99.3973333 310.059,99.4545455 310.133,99.4545455 L311.367,99.4545455 Z M313.617,101.636364 C313.691,101.636364 313.75,101.568485 313.75,101.485091 L313.75,94.1512727 C313.75,94.0678788 313.691,94 313.617,94 L312.383,94 C312.309,94 312.25,94.0678788 312.25,94.1512727 L312.25,101.485091 C312.25,101.568485 312.309,101.636364 312.383,101.636364 L313.617,101.636364 Z M315.867,103.818182 C315.941,103.818182 316,103.750303 316,103.666909 L316,96.3330909 C316,96.249697 315.941,96.1818182 315.867,96.1818182 L314.633,96.1818182 C314.559,96.1818182 314.5,96.249697 314.5,96.3330909 L314.5,103.666909 C314.5,103.750303 314.559,103.818182 314.633,103.818182 L315.867,103.818182 Z M320.367,103.818182 C320.441,103.818182 320.5,103.750303 320.5,103.666909 L320.5,96.3330909 C320.5,96.249697 320.441,96.1818182 320.367,96.1818182 L319.133,96.1818182 C319.059,96.1818182 319,96.249697 319,96.3330909 L319,103.666909 C319,103.750303 319.059,103.818182 319.133,103.818182 L320.367,103.818182 Z M322.617,101.636364 C322.691,101.636364 322.75,101.568485 322.75,101.485091 L322.75,94.1512727 C322.75,94.0678788 322.691,94 322.617,94 L321.383,94 C321.309,94 321.25,94.0678788 321.25,94.1512727 L321.25,101.485091 C321.25,101.568485 321.309,101.636364 321.383,101.636364 L322.617,101.636364 Z M324.867,99.4545455 C324.941,99.4545455 325,99.3973333 325,99.3255758 L325,95.5835152 C325,95.5117576 324.941,95.4545455 324.867,95.4545455 L323.633,95.4545455 C323.559,95.4545455 323.5,95.5117576 323.5,95.5835152 L323.5,99.3255758 C323.5,99.3973333 323.559,99.4545455 323.633,99.4545455 L324.867,99.4545455 Z M318.117,106 C318.191,106 318.25,105.932121 318.25,105.848727 L318.25,98.5149091 C318.25,98.4315152 318.191,98.3636364 318.117,98.3636364 L316.883,98.3636364 C316.809,98.3636364 316.75,98.4315152 316.75,98.5149091 L316.75,105.848727 C316.75,105.932121 316.809,106 316.883,106 L318.117,106 Z" id="Fill-479"></path>
        </g>
    </g>
</svg>