<svg aria-hidden="true" focusable="false" data-prefix="fas" data-icon="volume-mute" role="img" xmlns="http://www.w3.org/2000/svg" width="512" height="512" viewBox="0 0 512 512">
<path fill="currentColor" d="M454.63 256L509.66 200.97C512.78 197.85 512.78 192.78 509.66 189.66L498.35 178.35C495.23 175.23 490.16 175.23 487.04 178.35L432 233.37L376.97 178.34C373.85 175.22 368.78 175.22 365.66 178.34L354.35 189.65C351.23 192.77 351.23 197.84 354.35 200.96L409.37 256L354.34 311.03C351.22 314.15 351.22 319.22 354.34 322.34L365.65 333.65C368.77 336.77 373.84 336.77 376.96 333.65L432 278.63L487.03 333.66C490.15 336.78 495.22 336.78 498.34 333.66L509.65 322.35C512.77 319.23 512.77 314.16 509.65 311.04L454.63 256ZM231.81 64C225.9 64 219.89 66.18 215.03 71.05L126.06 160H24C10.74 160 0 170.74 0 184V328C0 341.25 10.74 352 24 352H126.06L215.03 440.95C219.9 445.82 225.91 448 231.81 448C244.14 448 256 438.48 256 423.98V88.02C256 73.51 244.13 64 231.81 64Z"/>
</svg>