<svg xmlns="http://www.w3.org/2000/svg" width="101" height="28" viewBox="-4 -4 101 28" id="gnb_wheresmymoney_w93" x="389" y="775"><path d="M4.186 19l1.099-4.398H8.03L6.932 19h3.22l1.099-4.398h2.33l.72-2.907H11.99l.87-3.448h2.141l.72-2.907H13.6L14.698 1h-3.22L10.38 5.34H7.633L8.732 1h-3.22L4.413 5.34H2.14l-.72 2.907h2.255l-.872 3.448H.72L0 14.602h2.065L.966 19h3.22zm4.584-7.305H6.023l.872-3.448H9.64l-.871 3.448zM30.21 19v-7.886h1.024V19h3.523V1h-3.523v6.607H30.21V1h-3.372v18h3.372zm-12.5-.581l8.656-.97v-3.506l-4.85.542v-13H17.71v16.934zm36.461-5.58v-3.12h-6.724V8.091h6.156V5.185h-11.97V3.848h11.875V1h-16.1v7.091h6.043V9.72h-6.706v3.12h17.426zM53.792 19v-2.906H41.52v-2.5h-4.11V19h16.383zm15.248 0v-7.886h1.023V19h3.523V1h-3.523v6.607H69.04V1h-3.372v18h3.372zm-12.501-.581l8.656-.97v-3.506l-4.85.542v-13H56.54v16.934zM92.432 7.49V4.875h-11.97V3.558h11.875V1h-16.1v6.49h16.195zM93 11.25V8.44H75.574v2.81H93zM92.621 19v-2.713h-12.16v-1.259h11.97v-2.616H76.238V19h16.384z" fill="#FFF" fill-rule="nonzero"/></svg>