<?xml version="1.0" encoding="UTF-8"?>
<svg width="123px" height="20px" viewBox="0 0 123 20" version="1.1" xmlns="http://www.w3.org/2000/svg" xmlns:xlink="http://www.w3.org/1999/xlink">
    <!-- Generator: Sketch 53.2 (72643) - https://sketchapp.com -->
    <title>Combined Shape</title>
    <desc>Created with Sketch.</desc>
    <g id="Page-1" stroke="none" stroke-width="1" fill="none" fill-rule="evenodd">
        <g id="Sidebar" transform="translate(-30.000000, -30.000000)" fill="#FFFFFF">
            <g id="Group-2" transform="translate(28.000000, 30.000000)">
                <path d="M79.3109332,0.000136610825 C79.6822562,-0.00578927462 79.9377264,0.370504451 79.798109,0.711242865 L72.2379728,19.6696319 C72.1562817,19.8725935 71.964679,20 71.750797,20 L67.8519055,20 C67.6365382,20 67.4449355,19.8666676 67.3647297,19.6696319 L59.7986524,0.711242865 C59.6649761,0.370504451 59.9204463,0.000136610825 60.2858281,0.000136610825 L64.863498,0.000136610825 C65.0848065,0.000136610825 65.2808651,0.139394919 65.356615,0.34680091 L69.8006086,12.5689396 L74.2401464,0.34680091 C74.3158962,0.139394919 74.5119548,0.000136610825 74.7332633,0.000136610825 L79.3109332,0.000136610825 Z M87.9375091,0.000136610825 C88.2286263,0.000136610825 88.4603318,0.231246143 88.4603318,0.52161453 L88.4603318,19.4785221 C88.4603318,19.7688905 88.2286263,20 87.9375091,20 L83.760868,20 C83.4712361,20 83.2380452,19.7688905 83.2380452,19.4785221 L83.2380452,0.52161453 C83.2380452,0.231246143 83.4712361,0.000136610825 83.760868,0.000136610825 L87.9375091,0.000136610825 Z M124.478663,4.39862509 L116.668997,4.39862509 L116.668997,7.84749042 L123.875634,7.84749042 C124.165266,7.84749042 124.396971,8.07859995 124.396971,8.36748686 L124.396971,11.5274653 C124.396971,11.8119078 124.165266,12.0489432 123.875634,12.0489432 L116.668997,12.0489432 L116.668997,15.6015115 L124.478663,15.6015115 C124.768294,15.6015115 125,15.8341025 125,16.1229894 L125,19.4785221 C125,19.7688905 124.768294,20 124.478663,20 L112.271048,20 C111.987357,20 111.74971,19.7688905 111.74971,19.4785221 L111.74971,0.52161453 C111.74971,0.231246143 111.987357,0.000136610825 112.271048,0.000136610825 L124.478663,0.000136610825 C124.768294,0.000136610825 125,0.231246143 125,0.52161453 L125,3.88307305 C125,4.16603408 124.768294,4.39862509 124.478663,4.39862509 Z M101.097196,16.0015088 C101.532387,16.0015088 103.115708,15.9022502 103.115708,13.9007824 C103.115708,12.0548691 101.793798,11.800056 100.905593,11.800056 L98.1845385,11.800056 L98.1845385,16.0015088 L101.097196,16.0015088 Z M98.1845385,3.99862782 L98.1845385,8.2000806 L101.055608,8.2000806 C101.787857,8.2000806 102.808252,7.74823183 102.808252,6.0534286 C102.808252,4.36306977 101.410593,3.99862782 100.719932,3.99862782 L98.1845385,3.99862782 Z M105.03619,9.59562662 C105.03619,9.59562662 108.122627,10.6711748 108.122627,14.5141115 C108.122627,18.3511224 105.559013,19.9881482 102.175518,20 L93.7925301,20 C93.5014128,20 93.2697073,19.7688905 93.2697073,19.4785221 L93.2697073,0.52161453 C93.2697073,0.231246143 93.5014128,0.000136610825 93.7925301,0.000136610825 L102.193342,0.000136610825 C105.587234,0.000136610825 107.659216,2.21049188 107.659216,5.127509 C107.659216,8.05637788 105.03619,9.59562662 105.03619,9.59562662 Z M8.99721055,10.3408067 L8.99721055,5.45195122 L12.6168671,5.45195122 L12.6168671,15.1452183 L8.97938705,15.1452183 L5.62114186,10.2548814 L5.62114186,15.1452183 L2,15.1452183 L2,5.45195122 L5.63153891,5.45195122 L8.99721055,10.3408067 Z M49.6971816,9.54229365 C49.9066077,9.38081328 50.0224605,9.1260002 50.0105782,8.85933536 C50.0105782,8.55859667 49.9125489,8.32156125 49.7150051,8.1482291 C49.5115201,7.97489695 49.094153,7.88749014 48.7287712,7.88749014 L47.9683017,7.88749014 L47.9683017,9.79710673 L48.7465947,9.79710673 C49.0763295,9.79710673 49.4892407,9.71710728 49.6971816,9.54229365 Z M53.5901319,8.74970648 C53.5901319,10.2371037 52.7613389,11.1630233 51.4780467,11.5156135 L54.4025866,15.1452183 L50.2422837,15.1452183 L48.0782133,12.1185724 L48.0782133,15.1452183 L44.4585567,15.1452183 L44.4585567,5.45195122 L48.9842414,5.45195122 C51.6057818,5.45195122 53.5901319,6.25046429 53.5901319,8.74970648 Z M39.2199319,11.4993173 L39.2199319,12.6222726 L43.0891175,12.6222726 L43.0891175,15.1452183 L35.634437,15.1452183 L35.634437,5.45195122 L42.9732647,5.45195122 L42.9732647,7.97489695 L39.2199319,7.97489695 L39.2199319,9.11414843 L42.6836328,9.11414843 L42.6836328,11.4993173 L39.2199319,11.4993173 Z M18.3679177,11.6370942 L20.1710622,11.6370942 L19.3185046,8.43711602 L19.2204753,8.43711602 L18.3679177,11.6370942 Z M17.2004782,5.45195122 L21.3325605,5.45195122 L25.1438197,15.1452183 L21.1171932,15.1452183 L20.7636937,13.8770789 L17.7752862,13.8770789 L17.4217867,15.1452183 L13.3951601,15.1452183 L17.2004782,5.45195122 Z M29.1244023,11.2963557 L30.9052674,5.45195122 L34.856144,5.45195122 L30.7834734,15.1452183 L27.3658165,15.1452183 L23.2931459,5.45195122 L27.2380814,5.45195122 L29.0248877,11.2963557 L29.1244023,11.2963557 Z" id="Combined-Shape"></path>
            </g>
        </g>
    </g>
</svg>