<?xml version="1.0" encoding="utf-8"?>
<svg width="229" height="203" viewBox="0 0 229 203" xmlns="http://www.w3.org/2000/svg" xmlns:xlink="http://www.w3.org/1999/xlink">
	<svg width="19" height="25" viewBox="-4 -4 19 25" id="src--sprite_svg--comment--arrow_mypage_back" x="202" y="53" xmlns="http://www.w3.org/2000/svg">
		<path fill="none" stroke="#FFF" stroke-width="1.3" d="M9.5 16.5L1 8.5l8.5-8" opacity=".7" />
	</svg>
	<svg width="18" height="14" viewBox="-4 -4 18 14" id="src--sprite_svg--comment--arrow_reply_close" x="58" y="81" xmlns="http://www.w3.org/2000/svg">
		<path fill="none" stroke="#222" d="M1 5l4-4 4 4" />
	</svg>
	<svg width="18" height="14" viewBox="-4 -4 18 14" id="src--sprite_svg--comment--arrow_reply_open" x="76" y="81" xmlns="http://www.w3.org/2000/svg">
		<path fill="none" stroke="#222" d="M1 .646l4 4 4-4" />
	</svg>
	<svg width="73" height="46" viewBox="-4 -4 73 46" id="src--sprite_svg--comment--btn_layer_cleanbot2_off" xmlns="http://www.w3.org/2000/svg">
		<defs>
			<filter id="adb" width="103.4%" height="109.1%" x="-1.7%" y="-4.5%" filterUnits="objectBoundingBox">
				<feGaussianBlur in="SourceAlpha" result="shadowBlurInner1" stdDeviation=".5" />
				<feOffset dy="1" in="shadowBlurInner1" result="shadowOffsetInner1" />
				<feComposite in="shadowOffsetInner1" in2="SourceAlpha" k2="-1" k3="1" operator="arithmetic" result="shadowInnerInner1" />
				<feColorMatrix in="shadowInnerInner1" values="0 0 0 0 0 0 0 0 0 0 0 0 0 0 0 0 0 0 0.103374094 0" />
			</filter>
			<filter id="adc" width="116.7%" height="116.7%" x="-8.3%" y="-5%" filterUnits="objectBoundingBox">
				<feMorphology in="SourceAlpha" operator="dilate" radius=".5" result="shadowSpreadOuter1" />
				<feOffset dy="1" in="shadowSpreadOuter1" result="shadowOffsetOuter1" />
				<feGaussianBlur in="shadowOffsetOuter1" result="shadowBlurOuter1" stdDeviation=".5" />
				<feComposite in="shadowBlurOuter1" in2="SourceAlpha" operator="out" result="shadowBlurOuter1" />
				<feColorMatrix in="shadowBlurOuter1" values="0 0 0 0 0 0 0 0 0 0 0 0 0 0 0 0 0 0 0.1 0" />
			</filter>
			<rect id="ada" width="59" height="22" x="3" y="8" rx="11" />
			<rect id="add" width="30" height="30" x="3" y="4" rx="15" />
		</defs>
		<g fill="none" fill-rule="evenodd">
			<g transform="matrix(-1 0 0 1 65 0)">
				<use fill="#CCC" xlink:href="#ada" />
				<use fill="#000" filter="url(#adb)" xlink:href="#ada" />
			</g>
			<path fill="#FFF" d="M40.132 15.496c1.872 0 3.045 1.279 3.045 3.331 0 2.057-1.169 3.336-3.045 3.336-1.881 0-3.054-1.28-3.054-3.336s1.19-3.33 3.054-3.33zm0 1.165c-1.029 0-1.697.839-1.697 2.166 0 1.323.655 2.171 1.697 2.171 1.032 0 1.692-.848 1.692-2.17 0-1.328-.66-2.167-1.692-2.167zM45.424 22h-1.328v-6.341h4.153v1.133h-2.825v1.653h2.58v1.085h-2.58V22zm5.041 0h-1.327v-6.341h4.153v1.133h-2.826v1.653h2.58v1.085h-2.58V22z" />
			<use fill="#000" filter="url(#adc)" xlink:href="#add" />
			<rect width="30.5" height="30.5" x="2.75" y="3.75" fill="#FFF" stroke="#000" stroke-opacity=".1" stroke-width=".5" rx="15" />
		</g>
	</svg>
	<svg width="73" height="46" viewBox="-4 -4 73 46" id="src--sprite_svg--comment--btn_layer_cleanbot2_on" x="73" xmlns="http://www.w3.org/2000/svg">
		<defs>
			<filter id="aec" width="103.4%" height="109.1%" x="-1.7%" y="-4.5%" filterUnits="objectBoundingBox">
				<feGaussianBlur in="SourceAlpha" result="shadowBlurInner1" stdDeviation=".5" />
				<feOffset dy="1" in="shadowBlurInner1" result="shadowOffsetInner1" />
				<feComposite in="shadowOffsetInner1" in2="SourceAlpha" k2="-1" k3="1" operator="arithmetic" result="shadowInnerInner1" />
				<feColorMatrix in="shadowInnerInner1" values="0 0 0 0 0 0 0 0 0 0 0 0 0 0 0 0 0 0 0.103374094 0" />
			</filter>
			<filter id="aed" width="116.7%" height="116.7%" x="-8.3%" y="-5%" filterUnits="objectBoundingBox">
				<feMorphology in="SourceAlpha" operator="dilate" radius=".5" result="shadowSpreadOuter1" />
				<feOffset dy="1" in="shadowSpreadOuter1" result="shadowOffsetOuter1" />
				<feGaussianBlur in="shadowOffsetOuter1" result="shadowBlurOuter1" stdDeviation=".5" />
				<feComposite in="shadowBlurOuter1" in2="SourceAlpha" operator="out" result="shadowBlurOuter1" />
				<feColorMatrix in="shadowBlurOuter1" values="0 0 0 0 0 0 0 0 0 0 0 0 0 0 0 0 0 0 0.1 0" />
			</filter>
			<rect id="aeb" width="59" height="22" x="3" y="8" rx="11" />
			<rect id="aee" width="30" height="30" x="32" y="4" rx="15" />
			<linearGradient id="aea" x1="100%" x2="0%" y1="50%" y2="50%">
				<stop offset="0%" stop-color="#04D281" />
				<stop offset="35.757%" stop-color="#02D1AD" />
				<stop offset="100%" stop-color="#2EB4E5" />
			</linearGradient>
		</defs>
		<g fill="none" fill-rule="evenodd">
			<g transform="matrix(-1 0 0 1 65 0)">
				<use fill="url(#aea)" xlink:href="#aeb" />
				<use fill="#000" filter="url(#aec)" xlink:href="#aeb" />
			</g>
			<path fill="#FFF" d="M15.886 15.496c1.872 0 3.045 1.279 3.045 3.331 0 2.057-1.169 3.336-3.045 3.336-1.881 0-3.055-1.28-3.055-3.336s1.191-3.33 3.055-3.33zm0 1.165c-1.029 0-1.697.839-1.697 2.166 0 1.323.655 2.171 1.697 2.171 1.032 0 1.691-.848 1.691-2.17 0-1.328-.659-2.167-1.691-2.167zM21.12 22h-1.27v-6.341h1.108l2.918 3.95h.079v-3.95h1.27V22h-1.099L21.2 18.032h-.079V22z" />
			<use fill="#000" filter="url(#aed)" xlink:href="#aee" />
			<rect width="30.5" height="30.5" x="31.75" y="3.75" fill="#FFF" stroke="#000" stroke-opacity=".1" stroke-width=".5" rx="15" />
		</g>
	</svg>
	<svg width="53" height="35" viewBox="-4 -4 53 35" id="src--sprite_svg--comment--btn_layer_cleanbot_off" x="146" y="56" xmlns="http://www.w3.org/2000/svg">
		<defs>
			<filter id="afa" width="121.7%" height="121.7%" x="-10.9%" y="-6.5%" filterUnits="objectBoundingBox">
				<feMorphology in="SourceAlpha" operator="dilate" radius=".5" result="shadowSpreadOuter1" />
				<feOffset dy="1" in="shadowSpreadOuter1" result="shadowOffsetOuter1" />
				<feGaussianBlur in="shadowOffsetOuter1" result="shadowBlurOuter1" stdDeviation=".5" />
				<feComposite in="shadowBlurOuter1" in2="SourceAlpha" operator="out" result="shadowBlurOuter1" />
				<feColorMatrix in="shadowBlurOuter1" values="0 0 0 0 0 0 0 0 0 0 0 0 0 0 0 0 0 0 0.1 0" />
			</filter>
			<rect id="afb" width="23" height="23" x="2" y="1" rx="11.5" />
		</defs>
		<g fill="none" fill-rule="evenodd">
			<rect width="40" height="19" x="5" y="3" fill="#CCC" rx="9.5" />
			<path fill="#FFF" fill-rule="nonzero" d="M28.365 12.522c0-.22.024-.432.074-.637.049-.205.127-.388.234-.55a1.19 1.19 0 01.42-.385c.173-.095.383-.143.63-.143s.457.048.63.143c.173.096.313.224.42.386.107.16.185.344.235.549a2.735 2.735 0 010 1.25 1.655 1.655 0 01-.235.535 1.202 1.202 0 01-.42.382 1.283 1.283 0 01-.63.143c-.247 0-.457-.048-.63-.143a1.202 1.202 0 01-.42-.382 1.655 1.655 0 01-.234-.536 2.544 2.544 0 01-.074-.612zm-1.099 0c0 .364.056.703.168 1.018.112.316.273.59.483.823.21.233.468.416.773.55.306.133.65.199 1.033.199a2.54 2.54 0 001.036-.2 2.22 2.22 0 00.77-.549c.21-.233.371-.507.483-.822.112-.316.168-.655.168-1.019 0-.373-.056-.72-.168-1.04a2.497 2.497 0 00-.483-.836 2.216 2.216 0 00-.77-.56 2.518 2.518 0 00-1.036-.203c-.383 0-.727.068-1.032.203a2.208 2.208 0 00-.774.56c-.21.238-.371.517-.483.836-.112.32-.168.667-.168 1.04zm5.663-2.52V15h1.099v-2.065h2.093v-.854h-2.093v-1.155h2.415v-.924h-3.514zm4.151 0h3.514v.924h-2.415v1.155h2.093v.854h-2.093V15H37.08v-4.998z" />
			<use fill="#000" filter="url(#afa)" xlink:href="#afb" />
			<rect width="23.5" height="23.5" x="1.75" y=".75" fill="#FFF" stroke="#000" stroke-opacity=".1" stroke-width=".5" rx="11.5" />
		</g>
	</svg>
	<svg width="53" height="35" viewBox="-4 -4 53 35" id="src--sprite_svg--comment--btn_layer_cleanbot_on" x="58" y="46" xmlns="http://www.w3.org/2000/svg">
		<defs>
			<filter id="aga" width="121.7%" height="121.7%" x="-10.9%" y="-6.5%" filterUnits="objectBoundingBox">
				<feMorphology in="SourceAlpha" operator="dilate" radius=".5" result="shadowSpreadOuter1" />
				<feOffset dy="1" in="shadowSpreadOuter1" result="shadowOffsetOuter1" />
				<feGaussianBlur in="shadowOffsetOuter1" result="shadowBlurOuter1" stdDeviation=".5" />
				<feComposite in="shadowBlurOuter1" in2="SourceAlpha" operator="out" result="shadowBlurOuter1" />
				<feColorMatrix in="shadowBlurOuter1" values="0 0 0 0 0 0 0 0 0 0 0 0 0 0 0 0 0 0 0.1 0" />
			</filter>
			<rect id="agb" width="23" height="23" x="20" y="1" rx="11.5" />
		</defs>
		<g fill="none" fill-rule="evenodd">
			<rect width="40" height="19" y="3" fill="#03C75A" rx="9.5" />
			<path fill="#FFF" fill-rule="nonzero" d="M7.365 12.522c0-.22.024-.432.074-.637.049-.205.127-.388.234-.55a1.19 1.19 0 01.42-.385c.173-.095.383-.143.63-.143s.457.048.63.143c.173.096.313.224.42.386.107.16.185.344.235.549a2.735 2.735 0 010 1.25 1.655 1.655 0 01-.235.535 1.202 1.202 0 01-.42.382 1.283 1.283 0 01-.63.143c-.247 0-.457-.048-.63-.143a1.202 1.202 0 01-.42-.382 1.655 1.655 0 01-.234-.536 2.544 2.544 0 01-.074-.612zm-1.099 0c0 .364.056.703.168 1.018.112.316.273.59.483.823.21.233.468.416.774.55.305.133.65.199 1.032.199a2.54 2.54 0 001.036-.2 2.22 2.22 0 00.77-.549c.21-.233.371-.507.483-.822.112-.316.168-.655.168-1.019 0-.373-.056-.72-.168-1.04a2.497 2.497 0 00-.483-.836 2.216 2.216 0 00-.77-.56 2.518 2.518 0 00-1.036-.203c-.383 0-.727.068-1.033.203a2.208 2.208 0 00-.773.56c-.21.238-.371.517-.483.836-.112.32-.168.667-.168 1.04zm5.663-2.52h1.092l2.086 3.353h.014v-3.353h1.029V15h-1.099l-2.079-3.346h-.014V15h-1.029v-4.998z" />
			<use fill="#000" filter="url(#aga)" xlink:href="#agb" />
			<rect width="23.5" height="23.5" x="19.75" y=".75" fill="#FFF" stroke="#000" stroke-opacity=".1" stroke-width=".5" rx="11.5" />
		</g>
	</svg>
	<svg width="22" height="22" viewBox="-4 -4 22 22" id="src--sprite_svg--comment--icon_caution" x="22" y="180" xmlns="http://www.w3.org/2000/svg">
		<g fill="none" fill-rule="evenodd">
			<path stroke="#999" d="M13.5 7.17c0 3.493-2.907 6.33-6.5 6.33S.5 10.663.5 7.17C.5 3.679 3.408.842 7 .842s6.5 2.837 6.5 6.33zM6.999 8.79V3" />
			<path fill="#999" d="M7.7 10.76a.7.7 0 10-1.401 0 .7.7 0 001.401 0" />
		</g>
	</svg>
	<svg width="30" height="30" viewBox="-4 -4 30 30" id="src--sprite_svg--comment--icon_cleanbot" x="110" y="99" xmlns="http://www.w3.org/2000/svg">
		<g fill="none" fill-rule="evenodd">
			<path fill="#03C75A" d="M10.839 3.742c.61-.188 1.004-.875.706-1.585a1.05 1.05 0 00-.556-.556c-.835-.35-1.635.255-1.635 1.046 0 .515.339.95.807 1.095l-.136 1.665c-2.874.15-5.33 1.668-6.554 4.367a1.919 1.919 0 00-.264-.02C1.987 9.754 1 10.93 1 12.384c0 1.306.798 2.386 1.844 2.593.809 2.018 3.929 3.523 7.656 3.523 3.728 0 6.847-1.505 7.656-3.523C19.202 14.77 20 13.69 20 12.384c0-1.453-.988-2.63-2.206-2.63-.091 0-.181.008-.27.02-1.225-2.691-3.68-4.216-6.548-4.367l-.137-1.665z" />
			<path fill="#FFF" d="M16.5 12.75c0 1.519-2.686 2.75-6 2.75-3.313 0-6-1.231-6-2.75 0-1.52 2.687-2.75 6-2.75 3.314 0 6 1.23 6 2.75" />
			<path fill="#03C75A" d="M8.34 13.82a.56.56 0 01-.56-.56v-1.12a.56.56 0 111.12 0v1.12a.56.56 0 01-.56.56m4.32 0a.56.56 0 01-.56-.56v-1.12a.56.56 0 011.12 0v1.12a.56.56 0 01-.56.56" />
		</g>
	</svg>
	<svg width="24" height="24" viewBox="-4 -4 24 24" id="src--sprite_svg--comment--icon_cleanbot_setting_active" x="202" y="103" xmlns="http://www.w3.org/2000/svg">
		<path fill="#03C75A" fill-rule="evenodd" d="M10 8.212a1.97 1.97 0 11-3.941 0 1.97 1.97 0 013.94 0m2.676 0c0-.218-.016-.433-.045-.642L14 6.2l-1.274-2.207-1.9.509a4.614 4.614 0 00-1.04-.591L9.274 2H6.726l-.52 1.937a4.657 4.657 0 00-.988.576l-1.944-.52L2 6.199l1.422 1.422a4.697 4.697 0 00-.004 1.146L2 10.185l1.275 2.207 1.906-.511c.316.246.664.452 1.037.61l.508 1.894h2.548l.5-1.868c.393-.159.757-.37 1.087-.624l1.865.499L14 10.185l-1.366-1.366c.026-.198.04-.401.04-.607" opacity=".5" />
	</svg>
	<svg width="24" height="24" viewBox="-4 -4 24 24" id="src--sprite_svg--comment--icon_cleanbot_setting_dim" x="202" y="127" xmlns="http://www.w3.org/2000/svg">
		<path fill="#CCC" fill-rule="evenodd" d="M10 8.212a1.97 1.97 0 11-3.941 0 1.97 1.97 0 013.94 0m2.676 0c0-.218-.016-.433-.045-.642L14 6.2l-1.274-2.207-1.9.509a4.614 4.614 0 00-1.04-.591L9.274 2H6.726l-.52 1.937a4.657 4.657 0 00-.988.576l-1.944-.52L2 6.199l1.422 1.422a4.697 4.697 0 00-.004 1.146L2 10.185l1.275 2.207 1.906-.511c.316.246.664.452 1.037.61l.508 1.894h2.548l.5-1.868c.393-.159.757-.37 1.087-.624l1.865.499L14 10.185l-1.366-1.366c.026-.198.04-.401.04-.607" />
	</svg>
	<svg width="21" height="24" viewBox="-4 -4 21 24" id="src--sprite_svg--comment--icon_down_active" x="202" y="151" xmlns="http://www.w3.org/2000/svg">
		<g fill="none" fill-rule="evenodd">
			<path fill="#222" fill-opacity=".08" stroke="#555" d="M9.297 3.586H12v5.406H9.297L7.494 15s-2.143-.256-2.143-2.086l.04-2.12H1.488s-1.126-.05-.973-1.18l.973-6.028h7.81z" />
			<path fill="#555" d="M11.788 8.808H8.903V3.5h2.885z" />
		</g>
	</svg>
	<svg width="21" height="24" viewBox="-4 -4 21 24" id="src--sprite_svg--comment--icon_down_normal" x="110" y="129" xmlns="http://www.w3.org/2000/svg">
		<g fill="none" fill-rule="evenodd">
			<path stroke="#777" d="M9.297 3.586H12v5.406H9.297L7.494 15s-2.143-.256-2.143-2.086l.04-2.12H1.488s-1.126-.05-.973-1.18l.973-6.028h7.81z" />
			<path fill="#777" d="M9.788 8.808h-1V3.5h1z" />
		</g>
	</svg>
	<svg width="24" height="23" viewBox="-4 -4 24 23" id="src--sprite_svg--comment--icon_exclamation_delete" x="131" y="129" xmlns="http://www.w3.org/2000/svg">
		<g fill="none" fill-rule="evenodd">
			<path stroke="#929292" d="M15 7.53C15 3.758 11.866.7 8 .7S1 3.758 1 7.53c0 3.77 3.134 6.828 7 6.828s7-3.058 7-6.83h0z" />
			<path fill="#929292" fill-rule="nonzero" d="M8 9.3a.544.544 0 00.542-.498l.375-4.505a.92.92 0 10-1.834 0l.375 4.505c.024.281.26.498.542.498zm.8 1.501A.801.801 0 008 10a.8.8 0 10.8.801z" />
		</g>
	</svg>
	<svg width="20" height="20" viewBox="-4 -4 20 20" id="src--sprite_svg--comment--icon_facebook_active" x="117" y="155" xmlns="http://www.w3.org/2000/svg">
		<path fill="#4C69BA" fill-rule="evenodd" d="M6.41 12H.662A.662.662 0 010 11.338V.662C0 .296.296 0 .662 0h10.676c.365 0 .662.296.662.662v10.676a.662.662 0 01-.662.662H8.28V7.353h1.56l.233-1.811H8.28V4.386c0-.525.145-.882.897-.882h.96v-1.62a12.82 12.82 0 00-1.398-.072c-1.383 0-2.33.844-2.33 2.394v1.336H4.847v1.81H6.41V12z" />
	</svg>
	<svg width="20" height="20" viewBox="-4 -4 20 20" id="src--sprite_svg--comment--icon_facebook_dim" x="137" y="155" xmlns="http://www.w3.org/2000/svg">
		<path fill="#CCC" fill-rule="evenodd" d="M6.41 12H.662A.662.662 0 010 11.338V.662C0 .296.296 0 .662 0h10.676c.365 0 .662.296.662.662v10.676a.662.662 0 01-.662.662H8.28V7.353h1.56l.233-1.811H8.28V4.386c0-.525.145-.882.897-.882h.96v-1.62a12.82 12.82 0 00-1.398-.072c-1.383 0-2.33.844-2.33 2.394v1.336H4.847v1.81H6.41V12z" />
	</svg>
	<svg width="58" height="53" viewBox="-4 -4 58 53" id="src--sprite_svg--comment--icon_goodcomment_exclamation" y="46" xmlns="http://www.w3.org/2000/svg">
		<g fill="none" fill-rule="evenodd">
			<path stroke="#F78419" stroke-linejoin="round" stroke-width="2" d="M49 18.585C49 9.372 41.477 1.815 31.88 1l-13.82.005C8.492 1.847 1 9.392 1 18.585 1 28.01 9 36 19 36l6 8 6-8c9.94 0 18-7.97 18-17.415z" />
			<path fill="#F78419" d="M27 26.998A2.003 2.003 0 0124.999 29 2 2 0 1127 26.998" />
			<path fill="#F78419" fill-rule="nonzero" d="M24.91 10a2.33 2.33 0 012.326 2.479l-.565 8.868a1.765 1.765 0 01-3.523 0l-.565-8.868A2.33 2.33 0 0124.909 10z" />
		</g>
	</svg>
	<svg width="24" height="24" viewBox="-4 -4 24 24" id="src--sprite_svg--comment--icon_layer_cleanbot2_close" x="28" y="155" xmlns="http://www.w3.org/2000/svg">
		<path d="M0 .827L.827 0 16 15.173l-.827.827L0 .827zM15.173 0L16 .827.827 16 0 15.173 15.173 0z" opacity=".2" />
	</svg>
	<svg width="26" height="26" viewBox="-4 -4 26 26" id="src--sprite_svg--comment--icon_layer_cleanbot_close" x="202" y="27" xmlns="http://www.w3.org/2000/svg">
		<path d="M9.09 8.24L16.448.883l.848.848-7.359 7.36 7.36 7.36-.85.848-7.359-7.36-7.36 7.36-.848-.849 7.36-7.36L.88 1.73l.85-.848L9.088 8.24z" opacity=".2" />
	</svg>
	<svg width="20" height="29" viewBox="-4 -4 20 29" id="src--sprite_svg--comment--icon_manageblock_back" x="140" y="99" xmlns="http://www.w3.org/2000/svg">
		<path fill="none" stroke="#FFF" stroke-width="1.3" d="M11 19l-9.5-8.5L11 2" opacity=".7" />
	</svg>
	<svg width="18" height="15" viewBox="-4 -4 18 15" id="src--sprite_svg--comment--icon_manageblock_more" x="86" y="180" xmlns="http://www.w3.org/2000/svg">
		<path fill="none" stroke="#777" stroke-linecap="round" stroke-width="1.2" d="M9 2L5.07 5.93a.1.1 0 01-.14 0L1 2" opacity=".9" />
	</svg>
	<svg width="56" height="56" viewBox="-4 -4 56 56" id="src--sprite_svg--comment--icon_manageblock_none" x="146" xmlns="http://www.w3.org/2000/svg">
		<g fill="none" fill-rule="evenodd">
			<path fill="#FFF" d="M0 0h48v48H0z" />
			<g fill-rule="nonzero" stroke="#979797" stroke-width="2" opacity=".6">
				<circle cx="24" cy="18" r="5" />
				<circle cx="24" cy="24" r="23" />
				<path d="M21.772 26a6.896 6.896 0 00-6.57 4.803l-.712 2.242A1.5 1.5 0 0015.919 35h16.162a1.5 1.5 0 001.429-1.955l-.713-2.242A6.894 6.894 0 0026.228 26h-4.456z" />
			</g>
		</g>
	</svg>
	<svg width="27" height="27" viewBox="-4 -4 27 27" id="src--sprite_svg--comment--icon_mypage_close" x="202" xmlns="http://www.w3.org/2000/svg">
		<path fill="#FFF" d="M10.46 9.435l7.723 7.722-.92.92-7.722-7.722-7.722 7.722-.919-.92 7.722-7.722L1 1.813l.92-.92 7.62 7.624L17.163.894l.92.92-7.622 7.621z" opacity=".7" />
	</svg>
	<svg width="25" height="25" viewBox="-4 -4 25 25" id="src--sprite_svg--comment--icon_mypage_facebook" x="202" y="78" xmlns="http://www.w3.org/2000/svg">
		<path fill="#4C69BA" fill-rule="evenodd" d="M9.08 17H.938A.938.938 0 010 16.062V.938C0 .42.42 0 .938 0h15.124c.518 0 .938.42.938.938v15.124c0 .518-.42.938-.938.938H11.73v-6.583h2.21l.33-2.566h-2.54V6.213c0-.743.206-1.249 1.271-1.249h1.359V2.668a18.162 18.162 0 00-1.98-.101c-1.959 0-3.3 1.195-3.3 3.39V7.85H6.865v2.566H9.08V17z" />
	</svg>
	<svg width="23" height="23" viewBox="-4 -4 23 23" id="src--sprite_svg--comment--icon_mypage_help" x="155" y="129" xmlns="http://www.w3.org/2000/svg">
		<g fill="none" fill-rule="evenodd" opacity=".7">
			<path stroke="#FFF" stroke-width=".8" d="M7.5 14.6A7.1 7.1 0 107.498.398 7.1 7.1 0 007.5 14.6z" />
			<path fill="#FFF" d="M8.5 4.499C8.5 5.05 8.053 5.5 7.499 5.5A1 1 0 118.5 4.499" />
			<rect width="1.6" height="5.3" x="6.7" y="6.3" fill="#FFF" rx=".75" />
		</g>
	</svg>
	<svg width="22" height="22" viewBox="-4 -4 22 22" id="src--sprite_svg--comment--icon_mypage_laststats_help" x="44" y="180" xmlns="http://www.w3.org/2000/svg">
		<g fill="none" fill-rule="evenodd">
			<rect width="13" height="13" x=".5" y=".5" stroke="#CDCED1" rx="6.5" />
			<path fill="#666" d="M8 4.499a1.001 1.001 0 11-2.002 0A1.001 1.001 0 018 4.5" />
			<rect width="1.4" height="4.8" x="6.3" y="6.2" fill="#666" rx=".7" />
		</g>
	</svg>
	<svg width="11" height="23" viewBox="-4 -4 11 23" id="src--sprite_svg--comment--icon_mypage_more" x="189" y="99" xmlns="http://www.w3.org/2000/svg">
		<path fill="#FFF" d="M1.5 3a1.5 1.5 0 110-3 1.5 1.5 0 010 3zm0 6a1.5 1.5 0 110-3 1.5 1.5 0 010 3zm0 6a1.5 1.5 0 110-3 1.5 1.5 0 010 3z" opacity=".7" />
	</svg>
	<svg width="35" height="35" viewBox="-4 -4 35 35" id="src--sprite_svg--comment--icon_mypage_profile_edit" x="111" y="46" xmlns="http://www.w3.org/2000/svg">
		<defs>
			<circle id="bba" cx="12.293" cy="12.293" r="12" />
		</defs>
		<g fill="none">
			<g transform="rotate(45 11.293 14.5)">
				<use fill="#FFF" xlink:href="#bba" />
				<circle cx="12.293" cy="12.293" r="12.5" stroke="#FFF" />
				<circle cx="12.293" cy="12.293" r="11.5" stroke="#E1E1E1" stroke-linejoin="square" />
			</g>
			<path fill="#666" stroke="#666" stroke-linecap="round" stroke-linejoin="round" d="M8.507 15.278l4.189-4.188.598-.598 1.795-1.795 2.121 2.121-1.795 1.795-.598.598-4.188 4.189-2.258.136z" />
			<path stroke="#FFF" d="M13.56 9.697l2.83 2.828-.708.707-2.828-2.828z" />
			<path stroke="#666" stroke-linecap="round" stroke-linejoin="round" d="M13.3 17.4H18" />
		</g>
	</svg>
	<svg width="20" height="21" viewBox="-4 -4 20 21" id="src--sprite_svg--comment--icon_mypage_return" x="66" y="180" xmlns="http://www.w3.org/2000/svg">
		<g fill="#777">
			<path d="M10.354 3.568L8.546 5.375a.5.5 0 00.708.707l2.12-2.121a.499.499 0 00.146-.393.499.499 0 00-.145-.393L9.254 1.054a.5.5 0 00-.708.707l1.808 1.807z" />
			<path d="M11 3H4.5a4.5 4.5 0 000 9H11v-1H4.5a3.5 3.5 0 010-7H11V3z" />
		</g>
	</svg>
	<svg width="28" height="25" viewBox="-4 -4 28 25" id="src--sprite_svg--comment--icon_mypage_twitter" y="155" xmlns="http://www.w3.org/2000/svg">
		<path fill="#55ACEE" fill-rule="evenodd" d="M13.655 1c-2.153 0-3.899 1.696-3.899 3.786 0 .297.035.587.101.864a11.177 11.177 0 01-8.034-3.957 3.689 3.689 0 00-.528 1.904c0 1.314.688 2.473 1.734 3.152a3.97 3.97 0 01-1.766-.474v.048c0 1.834 1.344 3.365 3.127 3.713a3.999 3.999 0 01-1.76.065c.496 1.504 1.935 2.6 3.641 2.63a7.967 7.967 0 01-4.84 1.62c-.316 0-.626-.017-.931-.052A11.27 11.27 0 006.476 16c7.17 0 11.09-5.77 11.09-10.774 0-.164-.004-.328-.01-.49a7.802 7.802 0 001.944-1.96 8 8 0 01-2.239.596 3.819 3.819 0 001.714-2.095 7.938 7.938 0 01-2.475.919A3.948 3.948 0 0013.655 1" />
	</svg>
	<svg width="29" height="29" viewBox="-4 -4 29 29" id="src--sprite_svg--comment--icon_mypage_userblock" x="160" y="99" xmlns="http://www.w3.org/2000/svg">
		<g fill="none" opacity=".7">
			<path stroke="#FFF" d="M10.285 9.99A2.5 2.5 0 1010.5 5a2.5 2.5 0 00-2.49 2.715l2.275 2.276z" />
			<circle cx="10.5" cy="10.5" r="10" stroke="#FFF" />
			<path fill="#FFF" d="M9.674 11.5h-1.19c-.645 0-1.218.413-1.422 1.026L6.404 14.5h6.27l1 1H6.4a1 1 0 01-.947-1.322l.674-1.983A2.502 2.502 0 018.494 10.5h.18l1 1zM3.139 3.546l.771-.771 14.527 14.527-.771.772z" />
		</g>
	</svg>
	<svg width="56" height="56" viewBox="-4 -4 56 56" id="src--sprite_svg--comment--icon_mypage_userblock2" y="99" xmlns="http://www.w3.org/2000/svg">
		<g fill="none" opacity=".7">
			<path stroke="#979797" stroke-width="2" d="M22.32 22.71a5 5 0 10-3.03-3.03l3.03 3.03z" />
			<circle cx="24" cy="24" r="23" stroke="#979797" stroke-width="2" />
			<path fill="#979797" d="M21.735 27H20.19a4.503 4.503 0 00-4.39 3.5l-.66 2.889a.5.5 0 00.487.611h13.085l1.988 2H15.665a2.5 2.5 0 01-2.432-3.08l.825-3.464A5.8 5.8 0 0119.7 25c.02 0 .699.667 2.035 2zM6.692 8.506l1.542-1.542 32.591 32.592-1.542 1.542z" />
		</g>
	</svg>
	<svg width="20" height="20" viewBox="-4 -4 20 20" id="src--sprite_svg--comment--icon_naver_active" x="157" y="155" xmlns="http://www.w3.org/2000/svg">
		<path fill="#03C75A" fill-rule="evenodd" d="M7.909 12L4.037 5.788V12H0V0h4.093l3.872 6.21V0H12v12z" />
	</svg>
	<svg width="20" height="20" viewBox="-4 -4 20 20" id="src--sprite_svg--comment--icon_naver_dim" x="177" y="155" xmlns="http://www.w3.org/2000/svg">
		<path fill="#CCC" fill-rule="evenodd" d="M7.909 12L4.037 5.788V12H0V0h4.093l3.872 6.21V0H12v12z" />
	</svg>
	<svg width="54" height="54" viewBox="-4 -4 54 54" id="src--sprite_svg--comment--icon_nocomment" x="56" y="99" xmlns="http://www.w3.org/2000/svg">
		<g fill="none" fill-rule="evenodd">
			<path stroke="#B7B5B5" stroke-linejoin="round" stroke-width="2" d="M44 18.405C44 9.81 37.418 2.76 29.02 2l-12.092.005C8.556 2.79 2 9.829 2 18.405c0 8.794 6.894 15.96 15.568 16.435l5.409 8.869 5.407-8.87C37.08 34.394 44 27.217 44 18.406z" />
			<path fill="#B7B5B5" d="M23.056 20.257a2 2 0 110-4 2 2 0 010 4zm11.363-2.002a2.002 2.002 0 01-2 2.002 2 2 0 112-2.002m-18.726 0a2.003 2.003 0 01-2.001 2.002 2 2 0 112.001-2.002" />
		</g>
	</svg>
	<svg width="23" height="20" viewBox="-4 -4 23 20" id="src--sprite_svg--comment--icon_twitter_active" x="178" y="129" xmlns="http://www.w3.org/2000/svg">
		<path fill="#55ACEE" fill-rule="evenodd" d="M7.308 3.03c0 .237.027.468.08.69A8.783 8.783 0 011.043.554a2.98 2.98 0 00-.416 1.523c0 1.052.543 1.979 1.369 2.522A3.103 3.103 0 01.603 4.22v.038c0 1.468 1.06 2.692 2.468 2.97a3.118 3.118 0 01-1.39.053 3.075 3.075 0 002.875 2.104A6.236 6.236 0 01.734 10.68 6.34 6.34 0 010 10.64 8.811 8.811 0 004.718 12c5.66 0 8.755-4.616 8.755-8.62 0-.13-.003-.261-.008-.391A6.203 6.203 0 0015 1.42a6.234 6.234 0 01-1.768.477A3.047 3.047 0 0014.586.22c-.595.348-1.254.6-1.955.736A3.097 3.097 0 0010.385 0c-1.7 0-3.077 1.356-3.077 3.03z" />
	</svg>
	<svg width="23" height="20" viewBox="-4 -4 23 20" id="src--sprite_svg--comment--icon_twitter_dim" x="94" y="155" xmlns="http://www.w3.org/2000/svg">
		<path fill="#CCC" fill-rule="evenodd" d="M7.308 3.03c0 .237.027.468.08.69A8.783 8.783 0 011.043.554a2.98 2.98 0 00-.416 1.523c0 1.052.543 1.979 1.369 2.522A3.103 3.103 0 01.603 4.22v.038c0 1.468 1.06 2.692 2.468 2.97a3.118 3.118 0 01-1.39.053 3.075 3.075 0 002.875 2.104A6.236 6.236 0 01.734 10.68 6.34 6.34 0 010 10.64 8.811 8.811 0 004.718 12c5.66 0 8.755-4.616 8.755-8.62 0-.13-.003-.261-.008-.391A6.203 6.203 0 0015 1.42a6.234 6.234 0 01-1.768.477A3.047 3.047 0 0014.586.22c-.595.348-1.254.6-1.955.736A3.097 3.097 0 0010.385 0c-1.7 0-3.077 1.356-3.077 3.03z" />
	</svg>
	<svg width="21" height="24" viewBox="-4 -4 21 24" id="src--sprite_svg--comment--icon_up_active" x="52" y="155" xmlns="http://www.w3.org/2000/svg">
		<g fill="none" fill-rule="evenodd">
			<path fill="#02CF79" fill-opacity=".08" stroke="#03C75A" d="M3.703 12.414H1V7.008h2.703L5.506 1s2.143.256 2.143 2.086l-.04 2.12h3.904s1.126.05.973 1.18l-.973 6.028h-7.81z" />
			<path fill="#03C75A" d="M1.212 7.192h2.885V12.5H1.212z" />
		</g>
	</svg>
	<svg width="21" height="24" viewBox="-4 -4 21 24" id="src--sprite_svg--comment--icon_up_normal" x="73" y="155" xmlns="http://www.w3.org/2000/svg">
		<g fill="none" fill-rule="evenodd">
			<path stroke="#777" d="M3.703 12.414H1V7.008h2.703L5.506 1s2.143.256 2.143 2.086l-.04 2.12h3.904s1.126.05.973 1.18l-.973 6.028h-7.81z" />
			<path fill="#777" d="M3.212 7.192h1V12.5h-1z" />
		</g>
	</svg>
	<svg width="11" height="23" viewBox="-4 -4 11 23" id="src--sprite_svg--comment--icon_usermore" y="180" xmlns="http://www.w3.org/2000/svg">
		<path fill="#999" d="M1.5 3a1.5 1.5 0 11.001-3.001A1.5 1.5 0 011.5 3zm0 6a1.5 1.5 0 11.001-3.001A1.5 1.5 0 011.5 9zm0 6a1.5 1.5 0 11.001-3.001A1.5 1.5 0 011.5 15z" />
	</svg>
	<svg width="11" height="23" viewBox="-4 -4 11 23" id="src--sprite_svg--comment--icon_usermore_pc" x="11" y="180" xmlns="http://www.w3.org/2000/svg">
		<path fill="#999" d="M1.5 4A1.5 1.5 0 111.501.999 1.5 1.5 0 011.5 4zm0 5a1.5 1.5 0 11.001-3.001A1.5 1.5 0 011.5 9zm0 5a1.5 1.5 0 11.001-3.001A1.5 1.5 0 011.5 14z" />
	</svg>
</svg>