<?xml version="1.0" encoding="utf-8"?><svg width="126" height="92" viewBox="0 0 126 92" xmlns="http://www.w3.org/2000/svg" xmlns:xlink="http://www.w3.org/1999/xlink"><svg width="26" height="26" viewBox="-4 -4 26 26" id="icon_checkbox" x="66" y="36" xmlns="http://www.w3.org/2000/svg"><circle cx="9" cy="9" r="8.386" fill="none" stroke="#000" stroke-width="1.227" opacity=".2"/></svg><svg width="26" height="26" viewBox="-4 -4 26 26" id="icon_checkbox_on" y="66" xmlns="http://www.w3.org/2000/svg"><circle cx="9" cy="9" r="6.5" fill="none" stroke="#FF0050" stroke-width="5"/></svg><svg width="66" height="66" viewBox="-4 -4 66 66" id="icon_comment_none" xmlns="http://www.w3.org/2000/svg"><g fill="none" fill-rule="evenodd"><path d="M0 0h58v58H0z"/><path stroke="#CCC" stroke-width="3.77" d="M50 5a5 5 0 015 5v29a5 5 0 01-5 5H36.142l-6.328 8.86a.957.957 0 01-.147.164l-.086.07c-.45.32-1.074.216-1.395-.233h0L21.857 44H8a5 5 0 01-5-5V10a5 5 0 015-5h42z"/><circle cx="16" cy="25" r="3" fill="#CCC"/><circle cx="29" cy="25" r="3" fill="#CCC"/><circle cx="42" cy="25" r="3" fill="#CCC"/></g></svg><svg width="21" height="21" viewBox="-4 -4 21 21" id="icon_end_arrow" x="102" y="48" xmlns="http://www.w3.org/2000/svg"><path fill="#232323" fill-rule="nonzero" d="M6.5 4.217L11.929 10l.571-.609L6.5 3l-6 6.391.571.609z"/></svg><svg width="24" height="24" viewBox="-4 -4 24 24" id="icon_exclamation" x="78" y="66" xmlns="http://www.w3.org/2000/svg"><g fill="none" fill-rule="evenodd"><path d="M0 0h16v16H0z"/><circle cx="8" cy="8" r="7.35" stroke="#CCC" stroke-width="1.3"/><path fill="#CCC" fill-rule="nonzero" d="M7.4 4.5h1.2V9H7.4z"/><circle cx="8" cy="10.75" r="1" fill="#CCC"/></g></svg><svg width="24" height="24" viewBox="-4 -4 24 24" id="icon_like_on_w16" x="102" xmlns="http://www.w3.org/2000/svg"><path fill="#FF1150" fill-rule="evenodd" d="M8 4.203C7.45 2.97 6.153 2 4.641 2 2.627 2.004.997 3.537 1 5.425 1 9.081 8 14 8 14s7-4.92 7-8.575c.003-1.888-1.627-3.422-3.642-3.425C9.846 2 8.55 2.969 8 4.203z"/></svg><svg width="26" height="26" viewBox="-4 -4 26 26" id="icon_like_on_w18" x="26" y="66" xmlns="http://www.w3.org/2000/svg"><path d="M9 4.887C8.41 3.55 7.021 2.5 5.401 2.5 3.243 2.504 1.497 4.165 1.5 6.21 1.5 10.172 9 15.5 9 15.5s7.5-5.33 7.5-9.29c.004-2.045-1.743-3.706-3.902-3.71C10.978 2.5 9.59 3.55 9 4.887z" fill="#FF1150" fill-rule="evenodd"/></svg><svg width="24" height="24" viewBox="-4 -4 24 24" id="icon_like_w16" x="102" y="24" xmlns="http://www.w3.org/2000/svg"><path fill="none" stroke="#999" stroke-width="1.1" d="M11.357 2.55c.86.001 1.639.327 2.202.856.55.517.892 1.23.891 2.02 0 3.043-5.114 6.935-6.45 7.9-1.337-.965-6.45-4.857-6.45-7.902a2.76 2.76 0 01.89-2.017 3.216 3.216 0 012.201-.857c.621 0 1.2.194 1.683.512.519.34.932.822 1.174 1.365h0L8 5.554l.502-1.127a3.235 3.235 0 011.174-1.366 3.064 3.064 0 011.68-.511z"/></svg><svg width="26" height="26" viewBox="-4 -4 26 26" id="icon_like_w18" x="52" y="66" xmlns="http://www.w3.org/2000/svg"><path d="M12.597 3.078c.923.001 1.76.355 2.365.93.593.564.962 1.342.96 2.203 0 3.305-5.496 7.536-6.922 8.578-1.426-1.042-6.922-5.273-6.922-8.58a3.02 3.02 0 01.96-2.2 3.427 3.427 0 012.363-.931c.667 0 1.288.21 1.807.555A3.49 3.49 0 018.471 5.12h0L9 6.319l.529-1.199a3.496 3.496 0 011.263-1.487 3.261 3.261 0 011.805-.555z" fill-rule="nonzero" stroke="#999" stroke-width="1.156" fill="none"/></svg><svg width="36" height="36" viewBox="-4 -4 36 36" id="icon_refresh" x="66" xmlns="http://www.w3.org/2000/svg"><g fill="none" fill-rule="evenodd" stroke-width="1.167"><circle cx="14" cy="14" r="13.417" fill="#FFF" stroke="#E4E4E4"/><path stroke="#000" d="M20.088 10.543A7 7 0 1021 14M20.417 7v3.5h-3.5"/></g></svg></svg>