<svg width="480" height="480" viewBox="0 0 480 480" fill="none" xmlns="http://www.w3.org/2000/svg">
<g clip-path="url(#clip0)">
<path d="M5.875 19.125H17.625C18.1082 19.125 18.5 19.5168 18.5 20C18.5 20.4591 18.1464 20.8356 17.6968 20.8721L17.625 20.875H5.875C5.39175 20.875 5 20.4832 5 20C5 19.5409 5.35356 19.1644 5.80324 19.1279L5.875 19.125H17.625H5.875ZM11.5532 3.0029L11.625 3C12.0841 3 12.4606 3.35356 12.4971 3.80324L12.5 3.875V14.5415L14.8966 12.1454C15.2383 11.8037 15.7923 11.8037 16.134 12.1454C16.4757 12.4871 16.4757 13.0411 16.134 13.3828L12.2449 17.2719C11.9032 17.6136 11.3492 17.6136 11.0075 17.2719L7.11839 13.3828C6.77668 13.0411 6.77668 12.4871 7.11839 12.1454C7.4601 11.8037 8.01412 11.8037 8.35583 12.1454L10.75 14.5395V3.875C10.75 3.41591 11.1036 3.0394 11.5532 3.0029L11.625 3L11.5532 3.0029Z" fill="#FF0050"/>
</g>
<defs>
<clipPath id="clip0">
<rect width="480" height="480" fill="white"/>
</clipPath>
</defs>
</svg>
