<svg width="480" height="480" viewBox="0 0 480 480" fill="none" xmlns="http://www.w3.org/2000/svg">
<g clip-path="url(#clip0)">
<path fill-rule="evenodd" clip-rule="evenodd" d="M73.401 7H69.294C69.1972 6.99978 69.1027 7.02944 69.0235 7.08492C68.9442 7.1404 68.8839 7.21901 68.851 7.31L64.863 18.31L60.873 7.31C60.8405 7.21909 60.7807 7.14046 60.7017 7.08495C60.6228 7.02943 60.5285 6.99976 60.432 7H56.325C56.2485 6.99979 56.1732 7.01828 56.1055 7.05386C56.0378 7.08943 55.9799 7.14102 55.9367 7.20412C55.8935 7.26722 55.8664 7.33992 55.8577 7.41589C55.8491 7.49186 55.8591 7.5688 55.887 7.64L62.677 24.704C62.747 24.883 62.921 25 63.114 25H66.613C66.7073 25.0003 66.7994 24.9722 66.8776 24.9194C66.9557 24.8666 67.0161 24.7916 67.051 24.704L73.839 7.641C73.8669 7.56966 73.8769 7.4926 73.8682 7.41651C73.8594 7.34042 73.8323 7.26761 73.789 7.20442C73.7457 7.14124 73.6877 7.08958 73.6199 7.05395C73.5521 7.01832 73.4766 6.9998 73.4 7H73.401ZM81.145 7H77.398C77.138 7 76.928 7.21 76.928 7.468V24.533C76.928 24.79 77.138 25 77.398 25H81.145C81.404 25 81.614 24.79 81.614 24.533V7.468C81.6137 7.34379 81.5642 7.22475 81.4763 7.13701C81.3884 7.04927 81.2692 7 81.145 7ZM113.948 10.96C114.206 10.96 114.416 10.75 114.416 10.493V7.468C114.416 7.34396 114.366 7.22508 114.279 7.13737C114.191 7.04966 114.072 7.00026 113.948 7H102.992C102.868 7 102.749 7.04927 102.661 7.13701C102.573 7.22475 102.523 7.34379 102.523 7.468V24.533C102.523 24.79 102.733 25 102.992 25H113.948C114.206 25 114.416 24.79 114.416 24.533V21.508C114.416 21.384 114.366 21.2651 114.279 21.1774C114.191 21.0897 114.072 21.0403 113.948 21.04H106.938V17.842H113.408C113.666 17.842 113.876 17.632 113.876 17.373V14.53C113.876 14.4685 113.864 14.4075 113.84 14.3507C113.817 14.2938 113.782 14.2422 113.739 14.1987C113.695 14.1552 113.643 14.1208 113.586 14.0973C113.53 14.0739 113.469 14.0619 113.407 14.062H106.938V10.96H113.948ZM92.956 21.4H90.346V17.62H92.787C93.583 17.62 94.773 17.848 94.773 19.51C94.773 21.31 93.349 21.4 92.956 21.4ZM90.346 10.6H92.618C93.238 10.6 94.497 10.925 94.497 12.448C94.497 13.972 93.58 14.38 92.922 14.38H90.346V10.6ZM96.493 15.634C96.493 15.634 98.85 14.248 98.85 11.617C98.85 8.987 96.992 7 93.942 7H86.4C86.276 7.00026 86.1571 7.04966 86.0694 7.13737C85.9817 7.22508 85.9323 7.34396 85.932 7.468V24.533C85.932 24.79 86.142 25 86.4 25H93.925C96.965 24.992 99.266 23.516 99.266 20.064C99.266 16.603 96.494 15.634 96.494 15.634H96.493Z" fill="white"/>
<mask id="mask0" mask-type="alpha" maskUnits="userSpaceOnUse" x="4" y="11" width="10" height="10">
<path d="M4 11.906H13.529V20.63H4V11.906Z" fill="white"/>
</mask>
<g mask="url(#mask0)">
<path fill-rule="evenodd" clip-rule="evenodd" d="M10.279 16.306L7.261 11.906H4V20.63H7.25V16.227L10.268 20.63H13.529V11.906H10.279V16.306Z" fill="white"/>
</g>
<path fill-rule="evenodd" clip-rule="evenodd" d="M46.819 15.589C46.629 15.743 46.263 15.819 45.961 15.819H45.264V14.099H45.947C46.277 14.099 46.65 14.179 46.832 14.334C47.012 14.492 47.097 14.704 47.097 14.975C47.1023 15.092 47.0799 15.2086 47.0316 15.3153C46.9833 15.422 46.9105 15.5158 46.819 15.589ZM50.315 14.874C50.315 12.627 48.53 11.906 46.177 11.906H42.117V20.63H45.367V17.905L47.308 20.63H51.044L48.415 17.366C49.57 17.045 50.315 16.211 50.315 14.874ZM37.413 17.349H40.519V15.204H37.413V14.178H40.784V11.905H34.193V20.63H40.885V18.358H37.413V17.349ZM18.692 17.473L19.456 14.595H19.546L20.311 17.473H18.692ZM17.648 11.906L14.227 20.63H17.842L18.159 19.49H20.844L21.161 20.63H24.776L21.354 11.906H17.648ZM28.348 17.165H28.258L26.656 11.906H23.112L26.769 20.63H29.838L33.497 11.906H29.951L28.348 17.165Z" fill="white"/>
<g clip-path="url(#clip1)">
<path d="M365.875 19.125H377.625C378.108 19.125 378.5 19.5168 378.5 20C378.5 20.4591 378.146 20.8356 377.697 20.8721L377.625 20.875H365.875C365.392 20.875 365 20.4832 365 20C365 19.5409 365.354 19.1644 365.803 19.1279L365.875 19.125H377.625H365.875ZM371.553 3.0029L371.625 3C372.084 3 372.461 3.35356 372.497 3.80324L372.5 3.875V14.5415L374.897 12.1454C375.238 11.8037 375.792 11.8037 376.134 12.1454C376.476 12.4871 376.476 13.0411 376.134 13.3828L372.245 17.2719C371.903 17.6136 371.349 17.6136 371.007 17.2719L367.118 13.3828C366.777 13.0411 366.777 12.4871 367.118 12.1454C367.46 11.8037 368.014 11.8037 368.356 12.1454L370.75 14.5395V3.875C370.75 3.41591 371.104 3.0394 371.553 3.0029L371.625 3L371.553 3.0029Z" fill="#FF0050"/>
</g>
<path d="M390.234 20.625C389.947 20.6245 389.664 20.549 389.414 20.4061C388.852 20.0874 388.502 19.4686 388.502 18.7969V5.20313C388.502 4.52953 388.852 3.91266 389.414 3.59391C389.67 3.44692 389.96 3.37134 390.255 3.37505C390.55 3.37876 390.839 3.46163 391.091 3.615L402.709 10.5694C402.951 10.7212 403.15 10.932 403.289 11.1821C403.427 11.4322 403.5 11.7133 403.5 11.9991C403.5 12.2849 403.427 12.566 403.289 12.816C403.15 13.0661 402.951 13.2769 402.709 13.4288L391.089 20.385C390.831 20.5409 390.536 20.6239 390.234 20.625V20.625Z" fill="white"/>
</g>
<defs>
<clipPath id="clip0">
<rect width="480" height="480" fill="white"/>
</clipPath>
<clipPath id="clip1">
<rect width="24" height="24" fill="white" transform="translate(360)"/>
</clipPath>
</defs>
</svg>
